<?xml version="1.0" encoding="utf-8"?>
<!-- Generator: Adobe Illustrator 26.0.0, SVG Export Plug-In . SVG Version: 6.00 Build 0)  -->
<svg version="1.1" id="Layer_1" xmlns="http://www.w3.org/2000/svg" xmlns:xlink="http://www.w3.org/1999/xlink" x="0px" y="0px"
	 viewBox="0 0 1000 1000" style="enable-background:new 0 0 1000 1000;" xml:space="preserve">
<style type="text/css">
	.st0{fill:none;}
	.st1{fill:#7CB7ED;}
	.st2{fill:#FFFFFF;}
	.st3{fill:#0FB55E;stroke:#0FB55E;stroke-width:2.592;stroke-linecap:round;stroke-linejoin:round;stroke-miterlimit:1.5497;}
	.st4{fill:none;stroke:#2C89A0;stroke-width:0.3874;stroke-miterlimit:1.5497;}
	.st5{fill:none;stroke:#2C89A0;stroke-width:2.592;stroke-miterlimit:1.5497;}
</style>
<path d="M472.74,21.11C228.33,33.33,32.33,229.33,20.11,473.74C5.68,762.03,232.97,989.32,521.26,974.89
	c244.41-12.22,440.41-208.22,452.63-452.63C988.32,233.97,761.03,6.68,472.74,21.11z M452.89,907.26
	C271.08,888.58,105.42,722.92,86.74,541.11C59.86,279.32,278.32,60.86,540.11,87.74c89.83,9.23,175.7,54.33,241.86,119.53
	c-2.09-0.71-4.49-0.23-6.16,1.44l-23.31,23.31c-2.34,2.34-2.34,6.14,0,8.48c2.34,2.34,6.14,2.34,8.48,0l23.31-23.31
	c1.17-1.17,1.76-2.71,1.76-4.24c0-0.66-0.11-1.31-0.33-1.94c65.75,66.3,111.26,152.59,120.54,242.88
	C933.14,715.68,714.68,934.14,452.89,907.26z M897.5,491.5h-51c-3.31,0-6,2.69-6,6s2.69,6,6,6h51c1.66,0,3.16-0.67,4.24-1.76
	c1.09-1.08,1.76-2.58,1.76-4.24C903.5,494.19,900.81,491.5,897.5,491.5z M866.79,404.43l17.5-4.69c1.6-0.43,2.88-1.47,3.64-2.8
	c0.77-1.32,1.03-2.95,0.6-4.54c-0.85-3.21-4.14-5.11-7.34-4.25l-17.5,4.69c-2.68,0.72-4.45,3.15-4.45,5.8
	c0,0.52,0.07,1.04,0.21,1.57C860.32,403.4,863.6,405.28,866.79,404.43z M884.14,594.82l-17.5-4.68c-0.52-0.14-1.04-0.21-1.56-0.21
	c-2.66,0-5.09,1.78-5.79,4.48c-0.84,3.19,1.06,6.46,4.25,7.32l17.49,4.68c1.6,0.43,3.24,0.17,4.55-0.6c1.33-0.75,2.38-2.04,2.8-3.63
	C889.25,598.97,887.34,595.68,884.14,594.82z M830.23,311.87l15.69-9.06c1.43-0.82,2.41-2.16,2.79-3.64
	c0.41-1.47,0.24-3.12-0.59-4.54c-1.65-2.89-5.33-3.86-8.2-2.21l-15.69,9.06c-1.93,1.11-3,3.13-3,5.2c0,1.03,0.27,2.07,0.82,3.02
	C823.72,312.55,827.37,313.52,830.23,311.87z M845.63,691.69l-15.69-9.06c-0.94-0.54-1.97-0.8-2.99-0.8c-2.08,0-4.11,1.08-5.22,3.02
	c-1.64,2.87-0.65,6.52,2.21,8.18l15.69,9.05c1.43,0.83,3.08,1,4.55,0.6c1.48-0.39,2.82-1.36,3.64-2.79
	C849.49,697.02,848.5,693.35,845.63,691.69z M761.98,752.5c-2.34-2.34-6.14-2.34-8.48,0c-2.34,2.34-2.34,6.14,0,8.48l23.31,23.31
	c1.17,1.17,2.71,1.76,4.24,1.76c1.53,0,3.07-0.59,4.24-1.76c2.35-2.34,2.35-6.14,0-8.48L761.98,752.5z M699.89,146.18
	c-2.87-1.67-6.54-0.68-8.2,2.19l-9.06,15.69c-0.54,0.94-0.8,1.97-0.8,2.99c0,2.08,1.08,4.11,3.02,5.22
	c2.87,1.64,6.52,0.65,8.18-2.21l9.05-15.69c0.83-1.43,1-3.08,0.6-4.55C702.29,148.34,701.32,147,699.89,146.18z M692.52,824.23
	c-1.11-1.93-3.13-3-5.2-3c-1.03,0-2.07,0.27-3.02,0.82c-2.85,1.67-3.82,5.32-2.17,8.18l9.06,15.69c0.82,1.43,2.16,2.41,3.64,2.79
	c1.47,0.41,3.12,0.24,4.54-0.59c2.89-1.65,3.86-5.33,2.21-8.2L692.52,824.23z M602.18,105.62c-3.21-0.87-6.5,1.04-7.36,4.24
	l-4.68,17.5c-0.14,0.52-0.21,1.04-0.21,1.56c0,2.66,1.78,5.09,4.48,5.79c3.19,0.84,6.46-1.06,7.32-4.25l4.68-17.49
	c0.43-1.6,0.17-3.24-0.6-4.55C605.06,107.09,603.77,106.04,602.18,105.62z M601.16,863.69c-0.72-2.68-3.15-4.45-5.8-4.45
	c-0.52,0-1.04,0.07-1.57,0.21c-3.19,0.87-5.07,4.15-4.22,7.34l4.69,17.5c0.43,1.6,1.47,2.88,2.8,3.64c1.32,0.77,2.95,1.03,4.54,0.6
	c3.21-0.85,5.11-4.14,4.25-7.34L601.16,863.69z M497.3,91.74c-3.32-0.02-6.01,2.68-6.01,5.99v18.12c0,3.31,2.7,6,6.01,6
	c0.01,0,0.01,0,0.02,0c3.3-0.02,5.97-2.7,5.97-6V97.73c0-1.65-0.67-3.16-1.76-4.24C500.46,92.41,498.95,91.73,497.3,91.74z
	 M496.5,841.5c-3.31,0-6,2.69-6,6v51c0,1.66,0.67,3.16,1.76,4.24c1.08,1.09,2.58,1.76,4.24,1.76c3.31,0,6-2.69,6-6v-51
	C502.5,844.19,499.81,841.5,496.5,841.5z M399.74,109.71c-0.43-1.6-1.47-2.88-2.8-3.64c-1.32-0.77-2.95-1.03-4.54-0.6
	c-3.21,0.85-5.11,4.14-4.25,7.34l4.69,17.5c0.72,2.68,3.15,4.45,5.8,4.45c0.52,0,1.04-0.07,1.57-0.21c3.19-0.87,5.07-4.15,4.22-7.34
	L399.74,109.71z M399.59,859.29c-3.19-0.84-6.46,1.06-7.32,4.25l-4.68,17.49c-0.43,1.6-0.17,3.24,0.6,4.55
	c0.75,1.33,2.04,2.38,3.63,2.8c3.21,0.87,6.5-1.04,7.36-4.24l4.68-17.5c0.14-0.52,0.21-1.04,0.21-1.56
	C404.07,862.42,402.29,859.99,399.59,859.29z M302.81,148.08c-0.82-1.43-2.16-2.41-3.64-2.79c-1.47-0.41-3.12-0.24-4.54,0.59
	c-2.89,1.65-3.86,5.33-2.21,8.2l9.06,15.69c1.11,1.93,3.13,3,5.2,3c1.03,0,2.07-0.27,3.02-0.82c2.85-1.67,3.82-5.32,2.17-8.18
	L302.81,148.08z M309.15,821.73c-2.87-1.64-6.52-0.65-8.18,2.21l-9.05,15.69c-0.83,1.43-1,3.08-0.6,4.55
	c0.39,1.48,1.36,2.82,2.79,3.64c2.87,1.67,6.54,0.68,8.2-2.19l9.06-15.69c0.54-0.94,0.8-1.97,0.8-2.99
	C312.17,824.87,311.09,822.84,309.15,821.73z M233.02,753.5l-23.31,23.31c-1.17,1.17-1.76,2.71-1.76,4.24
	c0,1.53,0.59,3.07,1.76,4.24c2.34,2.35,6.14,2.35,8.48,0l23.31-23.31c2.34-2.34,2.34-6.14,0-8.48
	C239.16,751.16,235.36,751.16,233.02,753.5z M232.02,241.5c2.34,2.34,6.14,2.34,8.48,0c2.34-2.34,2.34-6.14,0-8.48l-23.31-23.31
	c-1.17-1.17-2.71-1.76-4.24-1.76c-1.53,0-3.07,0.59-4.24,1.76c-2.35,2.34-2.35,6.14,0,8.48L232.02,241.5z M170.06,300.97
	l-15.69-9.05c-1.43-0.83-3.08-1-4.55-0.6c-1.48,0.39-2.82,1.36-3.64,2.79c-1.67,2.87-0.68,6.54,2.19,8.2l15.69,9.06
	c0.94,0.54,1.97,0.8,2.99,0.8c2.08,0,4.11-1.08,5.22-3.02C173.91,306.28,172.92,302.63,170.06,300.97z M163.77,682.13l-15.69,9.06
	c-1.43,0.82-2.41,2.16-2.79,3.64c-0.41,1.47-0.24,3.12,0.59,4.54c1.65,2.89,5.33,3.86,8.2,2.21l15.69-9.06c1.93-1.11,3-3.13,3-5.2
	c0-1.03-0.27-2.07-0.82-3.02C170.28,681.45,166.63,680.48,163.77,682.13z M152.5,497.5c0-3.31-2.69-6-6-6h-51
	c-1.66,0-3.16,0.67-4.24,1.76c-1.09,1.08-1.76,2.58-1.76,4.24c0,3.31,2.69,6,6,6h51C149.81,503.5,152.5,500.81,152.5,497.5z
	 M109.86,399.18l17.5,4.68c0.52,0.14,1.04,0.21,1.56,0.21c2.66,0,5.09-1.78,5.79-4.48c0.84-3.19-1.06-6.46-4.25-7.32l-17.49-4.68
	c-1.6-0.43-3.24-0.17-4.55,0.6c-1.33,0.75-2.38,2.04-2.8,3.63C104.75,395.03,106.66,398.32,109.86,399.18z M127.21,589.57
	l-17.5,4.69c-1.6,0.43-2.88,1.47-3.64,2.8c-0.77,1.32-1.03,2.95-0.6,4.54c0.85,3.21,4.14,5.11,7.34,4.25l17.5-4.69
	c2.68-0.72,4.45-3.15,4.45-5.8c0-0.52-0.07-1.04-0.21-1.57C133.68,590.6,130.4,588.72,127.21,589.57z"/>
<path d="M897.5,491.5h-51c-3.31,0-6,2.69-6,6s2.69,6,6,6h51c1.66,0,3.16-0.67,4.24-1.76c1.09-1.08,1.76-2.58,1.76-4.24
	C903.5,494.19,900.81,491.5,897.5,491.5z M866.79,404.43l17.5-4.69c1.6-0.43,2.88-1.47,3.64-2.8c0.77-1.32,1.03-2.95,0.6-4.54
	c-0.85-3.21-4.14-5.11-7.34-4.25l-17.5,4.69c-2.68,0.72-4.45,3.15-4.45,5.8c0,0.52,0.07,1.04,0.21,1.57
	C860.32,403.4,863.6,405.28,866.79,404.43z M884.14,594.82l-17.5-4.68c-0.52-0.14-1.04-0.21-1.56-0.21c-2.66,0-5.09,1.78-5.79,4.48
	c-0.84,3.19,1.06,6.46,4.25,7.32l17.49,4.68c1.6,0.43,3.24,0.17,4.55-0.6c1.33-0.75,2.38-2.04,2.8-3.63
	C889.25,598.97,887.34,595.68,884.14,594.82z M830.23,311.87l15.69-9.06c1.43-0.82,2.41-2.16,2.79-3.64
	c0.41-1.47,0.24-3.12-0.59-4.54c-1.65-2.89-5.33-3.86-8.2-2.21l-15.69,9.06c-1.93,1.11-3,3.13-3,5.2c0,1.03,0.27,2.07,0.82,3.02
	C823.72,312.55,827.37,313.52,830.23,311.87z M845.63,691.69l-15.69-9.06c-0.94-0.54-1.97-0.8-2.99-0.8c-2.08,0-4.11,1.08-5.22,3.02
	c-1.64,2.87-0.65,6.52,2.21,8.18l15.69,9.05c1.43,0.83,3.08,1,4.55,0.6c1.48-0.39,2.82-1.36,3.64-2.79
	C849.49,697.02,848.5,693.35,845.63,691.69z M760.98,240.5l23.31-23.31c1.17-1.17,1.76-2.71,1.76-4.24c0-0.66-0.11-1.31-0.33-1.94
	c-1.24-1.25-2.49-2.5-3.75-3.74c-2.09-0.71-4.49-0.23-6.16,1.44l-23.31,23.31c-2.34,2.34-2.34,6.14,0,8.48
	C754.84,242.84,758.64,242.84,760.98,240.5z M761.98,752.5c-2.34-2.34-6.14-2.34-8.48,0c-2.34,2.34-2.34,6.14,0,8.48l23.31,23.31
	c1.17,1.17,2.71,1.76,4.24,1.76c1.53,0,3.07-0.59,4.24-1.76c2.35-2.34,2.35-6.14,0-8.48L761.98,752.5z M699.89,146.18
	c-2.87-1.67-6.54-0.68-8.2,2.19l-9.06,15.69c-0.54,0.94-0.8,1.97-0.8,2.99c0,2.08,1.08,4.11,3.02,5.22
	c2.87,1.64,6.52,0.65,8.18-2.21l9.05-15.69c0.83-1.43,1-3.08,0.6-4.55C702.29,148.34,701.32,147,699.89,146.18z M692.52,824.23
	c-1.11-1.93-3.13-3-5.2-3c-1.03,0-2.07,0.27-3.02,0.82c-2.85,1.67-3.82,5.32-2.17,8.18l9.06,15.69c0.82,1.43,2.16,2.41,3.64,2.79
	c1.47,0.41,3.12,0.24,4.54-0.59c2.89-1.65,3.86-5.33,2.21-8.2L692.52,824.23z M602.18,105.62c-3.21-0.87-6.5,1.04-7.36,4.24
	l-4.68,17.5c-0.14,0.52-0.21,1.04-0.21,1.56c0,2.66,1.78,5.09,4.48,5.79c3.19,0.84,6.46-1.06,7.32-4.25l4.68-17.49
	c0.43-1.6,0.17-3.24-0.6-4.55C605.06,107.09,603.77,106.04,602.18,105.62z M601.16,863.69c-0.72-2.68-3.15-4.45-5.8-4.45
	c-0.52,0-1.04,0.07-1.57,0.21c-3.19,0.87-5.07,4.15-4.22,7.34l4.69,17.5c0.43,1.6,1.47,2.88,2.8,3.64c1.32,0.77,2.95,1.03,4.54,0.6
	c3.21-0.85,5.11-4.14,4.25-7.34L601.16,863.69z M497.3,91.74c-3.32-0.02-6.01,2.68-6.01,5.99v18.12c0,3.31,2.7,6,6.01,6
	c0.01,0,0.01,0,0.02,0c3.3-0.02,5.97-2.7,5.97-6V97.73c0-1.65-0.67-3.16-1.76-4.24C500.46,92.41,498.95,91.73,497.3,91.74z
	 M496.5,841.5c-3.31,0-6,2.69-6,6v51c0,1.66,0.67,3.16,1.76,4.24c1.08,1.09,2.58,1.76,4.24,1.76c3.31,0,6-2.69,6-6v-51
	C502.5,844.19,499.81,841.5,496.5,841.5z M399.74,109.71c-0.43-1.6-1.47-2.88-2.8-3.64c-1.32-0.77-2.95-1.03-4.54-0.6
	c-3.21,0.85-5.11,4.14-4.25,7.34l4.69,17.5c0.72,2.68,3.15,4.45,5.8,4.45c0.52,0,1.04-0.07,1.57-0.21c3.19-0.87,5.07-4.15,4.22-7.34
	L399.74,109.71z M399.59,859.29c-3.19-0.84-6.46,1.06-7.32,4.25l-4.68,17.49c-0.43,1.6-0.17,3.24,0.6,4.55
	c0.75,1.33,2.04,2.38,3.63,2.8c3.21,0.87,6.5-1.04,7.36-4.24l4.68-17.5c0.14-0.52,0.21-1.04,0.21-1.56
	C404.07,862.42,402.29,859.99,399.59,859.29z M302.81,148.08c-0.82-1.43-2.16-2.41-3.64-2.79c-1.47-0.41-3.12-0.24-4.54,0.59
	c-2.89,1.65-3.86,5.33-2.21,8.2l9.06,15.69c1.11,1.93,3.13,3,5.2,3c1.03,0,2.07-0.27,3.02-0.82c2.85-1.67,3.82-5.32,2.17-8.18
	L302.81,148.08z M309.15,821.73c-2.87-1.64-6.52-0.65-8.18,2.21l-9.05,15.69c-0.83,1.43-1,3.08-0.6,4.55
	c0.39,1.48,1.36,2.82,2.79,3.64c2.87,1.67,6.54,0.68,8.2-2.19l9.06-15.69c0.54-0.94,0.8-1.97,0.8-2.99
	C312.17,824.87,311.09,822.84,309.15,821.73z M233.02,753.5l-23.31,23.31c-1.17,1.17-1.76,2.71-1.76,4.24
	c0,1.53,0.59,3.07,1.76,4.24c2.34,2.35,6.14,2.35,8.48,0l23.31-23.31c2.34-2.34,2.34-6.14,0-8.48
	C239.16,751.16,235.36,751.16,233.02,753.5z M232.02,241.5c2.34,2.34,6.14,2.34,8.48,0c2.34-2.34,2.34-6.14,0-8.48l-23.31-23.31
	c-1.17-1.17-2.71-1.76-4.24-1.76c-1.53,0-3.07,0.59-4.24,1.76c-2.35,2.34-2.35,6.14,0,8.48L232.02,241.5z M170.06,300.97
	l-15.69-9.05c-1.43-0.83-3.08-1-4.55-0.6c-1.48,0.39-2.82,1.36-3.64,2.79c-1.67,2.87-0.68,6.54,2.19,8.2l15.69,9.06
	c0.94,0.54,1.97,0.8,2.99,0.8c2.08,0,4.11-1.08,5.22-3.02C173.91,306.28,172.92,302.63,170.06,300.97z M163.77,682.13l-15.69,9.06
	c-1.43,0.82-2.41,2.16-2.79,3.64c-0.41,1.47-0.24,3.12,0.59,4.54c1.65,2.89,5.33,3.86,8.2,2.21l15.69-9.06c1.93-1.11,3-3.13,3-5.2
	c0-1.03-0.27-2.07-0.82-3.02C170.28,681.45,166.63,680.48,163.77,682.13z M152.5,497.5c0-3.31-2.69-6-6-6h-51
	c-1.66,0-3.16,0.67-4.24,1.76c-1.09,1.08-1.76,2.58-1.76,4.24c0,3.31,2.69,6,6,6h51C149.81,503.5,152.5,500.81,152.5,497.5z
	 M109.86,399.18l17.5,4.68c0.52,0.14,1.04,0.21,1.56,0.21c2.66,0,5.09-1.78,5.79-4.48c0.84-3.19-1.06-6.46-4.25-7.32l-17.49-4.68
	c-1.6-0.43-3.24-0.17-4.55,0.6c-1.33,0.75-2.38,2.04-2.8,3.63C104.75,395.03,106.66,398.32,109.86,399.18z M127.21,589.57
	l-17.5,4.69c-1.6,0.43-2.88,1.47-3.64,2.8c-0.77,1.32-1.03,2.95-0.6,4.54c0.85,3.21,4.14,5.11,7.34,4.25l17.5-4.69
	c2.68-0.72,4.45-3.15,4.45-5.8c0-0.52-0.07-1.04-0.21-1.57C133.68,590.6,130.4,588.72,127.21,589.57z"/>
<path d="M240.5,241.5c-2.34,2.34-6.14,2.34-8.48,0l-23.31-23.31c-2.35-2.34-2.35-6.14,0-8.48c1.17-1.17,2.71-1.76,4.24-1.76
	c1.53,0,3.07,0.59,4.24,1.76l23.31,23.31C242.84,235.36,242.84,239.16,240.5,241.5z"/>
<path d="M241.5,761.98l-23.31,23.31c-2.34,2.35-6.14,2.35-8.48,0c-1.17-1.17-1.76-2.71-1.76-4.24c0-1.53,0.59-3.07,1.76-4.24
	l23.31-23.31c2.34-2.34,6.14-2.34,8.48,0C243.84,755.84,243.84,759.64,241.5,761.98z"/>
<path d="M785.29,784.29c-1.17,1.17-2.71,1.76-4.24,1.76c-1.53,0-3.07-0.59-4.24-1.76l-23.31-23.31c-2.34-2.34-2.34-6.14,0-8.48
	c2.34-2.34,6.14-2.34,8.48,0l23.31,23.31C787.64,778.15,787.64,781.95,785.29,784.29z"/>
<path d="M786.05,212.95c0,1.53-0.59,3.07-1.76,4.24l-23.31,23.31c-2.34,2.34-6.14,2.34-8.48,0c-2.34-2.34-2.34-6.14,0-8.48
	l23.31-23.31c1.67-1.67,4.07-2.15,6.16-1.44c0.85,0.28,1.65,0.77,2.32,1.44c0.67,0.67,1.15,1.46,1.43,2.3
	C785.94,211.64,786.05,212.29,786.05,212.95z"/>
<path d="M702.08,154.37l-9.05,15.69c-1.66,2.86-5.31,3.85-8.18,2.21c-1.94-1.11-3.02-3.14-3.02-5.22c0-1.02,0.26-2.05,0.8-2.99
	l9.06-15.69c1.66-2.87,5.33-3.86,8.2-2.19c1.43,0.82,2.4,2.16,2.79,3.64C703.08,151.29,702.91,152.94,702.08,154.37z"/>
<path d="M606.41,112.97l-4.68,17.49c-0.86,3.19-4.13,5.09-7.32,4.25c-2.7-0.7-4.48-3.13-4.48-5.79c0-0.52,0.07-1.04,0.21-1.56
	l4.68-17.5c0.86-3.2,4.15-5.11,7.36-4.24c1.59,0.42,2.88,1.47,3.63,2.8C606.58,109.73,606.84,111.37,606.41,112.97z"/>
<path d="M503.29,97.73v18.12c0,3.3-2.67,5.98-5.97,6c-0.01,0-0.01,0-0.02,0c-3.31,0-6.01-2.69-6.01-6V97.73
	c0-3.31,2.69-6.01,6.01-5.99c1.65-0.01,3.16,0.67,4.23,1.75C502.62,94.57,503.29,96.08,503.29,97.73z"/>
<path d="M400.21,134.55c-0.53,0.14-1.05,0.21-1.57,0.21c-2.65,0-5.08-1.77-5.8-4.45l-4.69-17.5c-0.86-3.2,1.04-6.49,4.25-7.34
	c1.59-0.43,3.22-0.17,4.54,0.6c1.33,0.76,2.37,2.04,2.8,3.64l4.69,17.5C405.28,130.4,403.4,133.68,400.21,134.55z"/>
<path d="M309.7,171.95c-0.95,0.55-1.99,0.82-3.02,0.82c-2.07,0-4.09-1.07-5.2-3l-9.06-15.69c-1.65-2.87-0.68-6.55,2.21-8.2
	c1.42-0.83,3.07-1,4.54-0.59c1.48,0.38,2.82,1.36,3.64,2.79l9.06,15.69C313.52,166.63,312.55,170.28,309.7,171.95z"/>
<path d="M172.27,309.15c-1.11,1.94-3.14,3.02-5.22,3.02c-1.02,0-2.05-0.26-2.99-0.8l-15.69-9.06c-2.87-1.66-3.86-5.33-2.19-8.2
	c0.82-1.43,2.16-2.4,3.64-2.79c1.47-0.4,3.12-0.23,4.55,0.6l15.69,9.05C172.92,302.63,173.91,306.28,172.27,309.15z"/>
<path d="M134.71,399.59c-0.7,2.7-3.13,4.48-5.79,4.48c-0.52,0-1.04-0.07-1.56-0.21l-17.5-4.68c-3.2-0.86-5.11-4.15-4.24-7.36
	c0.42-1.59,1.47-2.88,2.8-3.63c1.31-0.77,2.95-1.03,4.55-0.6l17.49,4.68C133.65,393.13,135.55,396.4,134.71,399.59z"/>
<path d="M134.76,595.36c0,2.65-1.77,5.08-4.45,5.8l-17.5,4.69c-3.2,0.86-6.49-1.04-7.34-4.25c-0.43-1.59-0.17-3.22,0.6-4.54
	c0.76-1.33,2.04-2.37,3.64-2.8l17.5-4.69c3.19-0.85,6.47,1.03,7.34,4.22C134.69,594.32,134.76,594.84,134.76,595.36z"/>
<path d="M172.77,687.32c0,2.07-1.07,4.09-3,5.2l-15.69,9.06c-2.87,1.65-6.55,0.68-8.2-2.21c-0.83-1.42-1-3.07-0.59-4.54
	c0.38-1.48,1.36-2.82,2.79-3.64l15.69-9.06c2.86-1.65,6.51-0.68,8.18,2.17C172.5,685.25,172.77,686.29,172.77,687.32z"/>
<path d="M312.17,826.95c0,1.02-0.26,2.05-0.8,2.99l-9.06,15.69c-1.66,2.87-5.33,3.86-8.2,2.19c-1.43-0.82-2.4-2.16-2.79-3.64
	c-0.4-1.47-0.23-3.12,0.6-4.55l9.05-15.69c1.66-2.86,5.31-3.85,8.18-2.21C311.09,822.84,312.17,824.87,312.17,826.95z"/>
<path d="M404.07,865.08c0,0.52-0.07,1.04-0.21,1.56l-4.68,17.5c-0.86,3.2-4.15,5.11-7.36,4.24c-1.59-0.42-2.88-1.47-3.63-2.8
	c-0.77-1.31-1.03-2.95-0.6-4.55l4.68-17.49c0.86-3.19,4.13-5.09,7.32-4.25C402.29,859.99,404.07,862.42,404.07,865.08z"/>
<path d="M601.6,888.53c-1.59,0.43-3.22,0.17-4.54-0.6c-1.33-0.76-2.37-2.04-2.8-3.64l-4.69-17.5c-0.85-3.19,1.03-6.47,4.22-7.34
	c0.53-0.14,1.05-0.21,1.57-0.21c2.65,0,5.08,1.77,5.8,4.45l4.69,17.5C606.71,884.39,604.81,887.68,601.6,888.53z"/>
<path d="M699.37,848.12c-1.42,0.83-3.07,1-4.54,0.59c-1.48-0.38-2.82-1.36-3.64-2.79l-9.06-15.69c-1.65-2.86-0.68-6.51,2.17-8.18
	c0.95-0.55,1.99-0.82,3.02-0.82c2.07,0,4.09,1.07,5.2,3l9.06,15.69C703.23,842.79,702.26,846.47,699.37,848.12z"/>
<path d="M847.82,699.89c-0.82,1.43-2.16,2.4-3.64,2.79c-1.47,0.4-3.12,0.23-4.55-0.6l-15.69-9.05c-2.86-1.66-3.85-5.31-2.21-8.18
	c1.11-1.94,3.14-3.02,5.22-3.02c1.02,0,2.05,0.26,2.99,0.8l15.69,9.06C848.5,693.35,849.49,697.02,847.82,699.89z"/>
<path d="M888.38,602.18c-0.42,1.59-1.47,2.88-2.8,3.63c-1.31,0.77-2.95,1.03-4.55,0.6l-17.49-4.68c-3.19-0.86-5.09-4.13-4.25-7.32
	c0.7-2.7,3.13-4.48,5.79-4.48c0.52,0,1.04,0.07,1.56,0.21l17.5,4.68C887.34,595.68,889.25,598.97,888.38,602.18z"/>
<path d="M887.93,396.94c-0.76,1.33-2.04,2.37-3.64,2.8l-17.5,4.69c-3.19,0.85-6.47-1.03-7.34-4.22c-0.14-0.53-0.21-1.05-0.21-1.57
	c0-2.65,1.77-5.08,4.45-5.8l17.5-4.69c3.2-0.86,6.49,1.04,7.34,4.25C888.96,393.99,888.7,395.62,887.93,396.94z"/>
<path d="M848.71,299.17c-0.38,1.48-1.36,2.82-2.79,3.64l-15.69,9.06c-2.86,1.65-6.51,0.68-8.18-2.17c-0.55-0.95-0.82-1.99-0.82-3.02
	c0-2.07,1.07-4.09,3-5.2l15.69-9.06c2.87-1.65,6.55-0.68,8.2,2.21C848.95,296.05,849.12,297.7,848.71,299.17z"/>
<path d="M152.5,497.5c0,3.31-2.69,6-6,6h-51c-3.31,0-6-2.69-6-6c0-1.66,0.67-3.16,1.76-4.24c1.08-1.09,2.58-1.76,4.24-1.76h51
	C149.81,491.5,152.5,494.19,152.5,497.5z"/>
<path d="M502.5,847.5v51c0,3.31-2.69,6-6,6c-1.66,0-3.16-0.67-4.24-1.76c-1.09-1.08-1.76-2.58-1.76-4.24v-51c0-3.31,2.69-6,6-6
	S502.5,844.19,502.5,847.5z"/>
<path d="M903.5,497.5c0,1.66-0.67,3.16-1.76,4.24c-1.08,1.09-2.58,1.76-4.24,1.76h-51c-3.31,0-6-2.69-6-6s2.69-6,6-6h51
	C900.81,491.5,903.5,494.19,903.5,497.5z"/>
<circle class="st0" cx="497.5" cy="495.5" r="241.5"/>
<g id="g4413" transform="matrix(0.81,0,0,0.81,76.000608,63.616306)">
	<g id="g4407" transform="translate(554.43,299.61)">
		<path id="path4409" class="st1" d="M214.78,233.52c4.69,321.19-499.83,321.19-495.1-0.02
			C-285.01-87.67,219.51-87.67,214.78,233.52"/>
		<path id="path4411" class="st0" d="M219.64,233.52c4.78,327.49-509.64,327.49-504.82-0.02
			C-289.95-93.97,224.47-93.97,219.64,233.52"/>
	</g>
	<g id="g26" transform="translate(447,151.47)">
		<path id="path28" class="st2" d="M150,619.13c0,0-77.91,24.81-156.94-2.09C40.6,604.4,101.01,584.3,150,619.13"/>
	</g>
	<g id="g30" transform="translate(487.95,212.66)">
		<path id="path32" class="st3" d="M174.69,459.85c-2.94-26.6,4.21-123.68-16.21-148.08c-58.36-4.05-100.53,11.56-108.3-66.3
			c6.67-13.73,30.81-34.23,33.89-50.83c2.75,0.97,71.92-26.51,56.73,0l33.89,12.52l5.89-13.26l29.47,8.84
			c7.13-18.5-34.74-31.46-41.99-35.36c0,0,5.9,11.05,2.95,14c-2.95,2.95-12.52-14-12.52-14c-15.21-10.74-52.57-10.06-55.99,14
			c-11.63,7.86-37.62,9.01-30.94-15.47c19.53-0.33,25.44-10.11,6.63-21.36l11.05-5.16l10.31-18l16.21,1.8
			c3.91-9.47,6.02-28.04,3.86-38.08c0,0,107.87,50.72,141.88,134.64l-17.56-11.11l7.37,16.21l2.95-2.21
			c11.65,13.43,9.4,34.13,4.42,49.84c0,0-28.08-47.36-41.26-59.42c0,0,19.17,44.2,41.99,67.04l7.37-7.62
			c0.28,11.88,1.42,41.29-6.63,51.11c-8.65,18.76-10.71,45.99-9.58,66.3c-4.91,5.51-15.84,15.27-22.1,19.15v9.58
			c-9.96,14.63-26.21,32.79-41.99,41.27h-11.79V459.85z"/>
	</g>
	<path id="path36" class="st3" d="M449.6,756.38l-14.73-19.15l2.21-10.32h9.58c-3.86-10.33,0.95-24.36,2.95-34.62
		c8.67-14.54,23.65-5.39,25.05-42.73c39.18-51.13-20.09-41.48-50.1-60.41c-4-23.52-17.95-12.87-30.94-16.94
		c-3.5-14.16-43.81-19.51-48.62-25.79c0,0-2.21-8.1-14.73-5.16c-9.04-0.25,3.43-35.51-16.21-29.47
		c-22.4-6.35-21.16-68.14,20.63-55.99c0,0-0.74,14,1.47,20.63c8.3,4.16,6.72-24.82,7.37-30.21c14.38,2.71,32.55-51.96,47.15-36.1
		l0.74-12.52c7.71,2.68,28.54-8.09,35.36-11.05c0,0-11.79,0.74-16.21-5.89l31.68-16.94c0.56-6.18-1.41-23.13-2.17-29.47l-7.4,8.84
		l-1.47-8.84c-9.59-2.27-22.64-2.46-30.94,3.68l-0.74,7.37l-13.26,5.89l-6.63-6.63c6.27-7.63,18.39-22.31,24.05-30.7
		c-0.68-9.52-161.67,121.35-111.71,200.14h8.1l2.95,7.37c2.6,0.74,8.22,2.71,10.32,4.42c1.61,3.46,4.16,12.44,5.16,16.21l6.63,1.47
		l3.68,6.63l4.42,0.74l-1.47-5.89h5.89l2.21,5.16c-14.09,7.15-8.66,26.32-8.1,39.05l-6.63,3.68c1.32,6.22,2.66,14.98,2.21,21.36
		l-3.69,1.47l26.52,36.1c6.07,2.74,15.29,3.89,21.36,6.63c17.28,29.23,30.68,92.79,78.09,97.96"/>
	<g id="g38" transform="translate(400,455.04)">
		<path id="path40" class="st2" d="M121.66-171.07c81.86,0,127.1,35.08,127.1,35.08s-30.42,13.06-77.57,0
			c-9.4-5.64-93.96,33.47-101.14-4.98c0,0-22.41,15.4-60.99-3.08C9.06-144.03,60.01-171.07,121.66-171.07"/>
	</g>
	<g id="g22" transform="translate(554.43,299.61)">
		<path id="path24" class="st4" d="M214.78,233.52c4.69,321.19-499.83,321.19-495.1-0.02C-285.01-87.67,219.51-87.67,214.78,233.52"
			/>
		<path id="path3655" class="st5" d="M219.64,233.52c4.78,327.49-509.64,327.49-504.82-0.02
			C-289.95-93.97,224.47-93.97,219.64,233.52"/>
	</g>
</g>
</svg>
