<?xml version="1.0" encoding="utf-8"?>
<!-- Generator: Adobe Illustrator 26.0.0, SVG Export Plug-In . SVG Version: 6.00 Build 0)  -->
<svg version="1.1" id="Layer_1" xmlns="http://www.w3.org/2000/svg" xmlns:xlink="http://www.w3.org/1999/xlink" x="0px" y="0px"
	 viewBox="0 0 1000 1000" style="enable-background:new 0 0 1000 1000;" xml:space="preserve">
<style type="text/css">
	.st0{enable-background:new    ;}
</style>
<g>
	<g>
		<path d="M67.2,249.6L67.2,249.6c1.5-2.6,4.8-3.5,7.4-2l59.1,34c2.6,1.5,3.5,4.8,2,7.4l0,0c-1.5,2.6-4.8,3.5-7.4,2l-59.1-34
			C66.6,255.5,65.7,252.2,67.2,249.6z"/>
	</g>
</g>
<g>
	<g>
		<path d="M0,499.6L0,499.6c0-3,2.4-5.4,5.4-5.4l68.2-0.2c3,0,5.4,2.4,5.4,5.4l0,0c0,3-2.4,5.4-5.4,5.4L5.4,505
			C2.4,505,0,502.5,0,499.6z"/>
	</g>
</g>
<g>
	<g>
		<path d="M66.8,749.6L66.8,749.6c-1.5-2.6-0.6-5.9,2-7.4l59-34.2c2.6-1.5,5.9-0.6,7.4,2l0,0c1.5,2.6,0.6,5.9-2,7.4l-59,34.2
			C71.6,753.1,68.3,752.2,66.8,749.6z"/>
	</g>
</g>
<g>
	<g>
		<path d="M249.6,932.8c-3-1.3-3.1-6.2-2-7.4c0.8-1.4,34-59,34.1-59.2c1.5-2.5,4.8-3.3,7.3-1.8c2.6,1.5,3.5,4.8,2,7.4l-34,59.1
			C255.5,933.4,252.2,934.3,249.6,932.8z"/>
	</g>
</g>
<g>
	<g>
		<path d="M499.6,1000c-3.3,0.4-5.8-3.8-5.4-5.4c0-1.6-0.2-68.1-0.2-68.4c0.1-2.9,2.5-5.2,5.4-5.2c3,0,5.4,2.4,5.4,5.4l0.2,68.2
			C505,997.6,502.5,1000,499.6,1000z"/>
	</g>
</g>
<g>
	<g>
		<path d="M749.6,933.2c-2.7,1.9-6.9-0.4-7.4-2c-0.8-1.4-34.2-58.9-34.3-59.2c-1.4-2.6-0.4-5.8,2.1-7.2c2.6-1.5,5.9-0.6,7.4,2
			l34.2,59C753.1,928.4,752.2,931.7,749.6,933.2z"/>
	</g>
</g>
<g>
	<g>
		<path d="M932.8,750.4L932.8,750.4c-1.5,2.6-4.8,3.5-7.4,2l-59.1-34c-2.6-1.5-3.5-4.8-2-7.4l0,0c1.5-2.6,4.8-3.5,7.4-2l59.1,34
			C933.4,744.5,934.3,747.8,932.8,750.4z"/>
	</g>
</g>
<g>
	<g>
		<path d="M1000,500.4L1000,500.4c0,3-2.4,5.4-5.4,5.4l-68.2,0.2c-3,0-5.4-2.4-5.4-5.4l0,0c0-3,2.4-5.4,5.4-5.4l68.2-0.2
			C997.6,495,1000,497.5,1000,500.4z"/>
	</g>
</g>
<g>
	<g>
		<path d="M933.2,250.4L933.2,250.4c1.5,2.6,0.6,5.9-2,7.4l-59,34.2c-2.6,1.5-5.9,0.6-7.4-2l0,0c-1.5-2.6-0.6-5.9,2-7.4l59-34.2
			C928.4,246.9,931.7,247.8,933.2,250.4z"/>
	</g>
</g>
<g>
	<g>
		<path d="M750.4,67.2L750.4,67.2c2.6,1.5,3.5,4.8,2,7.4l-34,59.1c-1.5,2.6-4.8,3.5-7.4,2c-3-1.3-3.1-6.2-2-7.4
			c0.8-1.4,34-59,34.1-59.2C744.6,66.6,747.9,65.7,750.4,67.2z"/>
	</g>
</g>
<g>
	<g>
		<path d="M500.4,0L500.4,0c3,0,5.4,2.4,5.4,5.4l0.2,68.2c0,3-2.4,5.4-5.4,5.4c-3.3,0.4-5.8-3.8-5.4-5.4c0-1.6-0.2-68.1-0.2-68.4
			C495.1,2.3,497.6,0,500.4,0z"/>
	</g>
</g>
<g>
	<g>
		<path d="M250.4,66.8L250.4,66.8c2.6-1.5,5.9-0.6,7.4,2l34.2,59c1.5,2.6,0.6,5.9-2,7.4c-2.6,1.9-6.9-0.4-7.4-2
			c-0.8-1.4-34.2-58.9-34.3-59.2C246.9,71.5,247.9,68.3,250.4,66.8z"/>
	</g>
</g>
<g>
	<path d="M72.6,252.7L72.6,252.7c0.6-1.1,2.1-1.5,3.2-0.9l32.3,18.5c1.1,0.6,1.5,2.1,0.9,3.2l0,0c-0.6,1.1-2.1,1.5-3.2,0.9
		l-32.3-18.5C72.3,255.2,72,253.8,72.6,252.7z"/>
</g>
<g>
	<path d="M64.2,267.8L64.2,267.8c0.6-1.1,2-1.6,3.1-1l32.9,17.4c1.1,0.6,1.6,2,1,3.1l0,0c-0.6,1.1-2,1.6-3.1,1l-32.9-17.4
		C64,270.3,63.6,268.9,64.2,267.8z"/>
</g>
<g>
	<path d="M56.4,283.1L56.4,283.1c0.6-1.2,2-1.6,3.1-1.1c0.8,1.5,38.6,15.9,34.6,19.3l0,0c-0.6,1.2-2,1.6-3.1,1.1l-33.5-16.2
		C56.3,285.7,55.8,284.3,56.4,283.1z"/>
</g>
<g>
	<path d="M49.1,298.7L49.1,298.7c0.5-1.2,1.9-1.7,3.1-1.2l34,15.1c1.2,0.5,1.7,1.9,1.2,3.1l0,0c-0.5,1.2-1.9,1.7-3.1,1.2l-34-15.1
		C49.1,301.3,48.6,299.9,49.1,298.7z"/>
</g>
<g>
	<path d="M42.3,314.6L42.3,314.6c0.5-1.2,1.8-1.8,3-1.3l34.5,13.9c1.2,0.5,1.8,1.8,1.3,3l0,0c-0.5,1.2-1.8,1.8-3,1.3l-34.5-13.9
		C42.4,317.1,41.8,315.8,42.3,314.6z"/>
</g>
<g>
	<path d="M36.1,330.7L36.1,330.7c0.4-1.2,1.8-1.8,3-1.4l35,12.7c1.2,0.4,1.8,1.8,1.4,3l0,0c-0.4,1.2-1.8,1.8-3,1.4l-35-12.7
		C36.3,333.2,35.7,331.9,36.1,330.7z"/>
</g>
<g>
	<path d="M30.5,347L30.5,347c0.4-1.2,1.7-1.9,2.9-1.5l35.4,11.4c1.2,0.4,1.9,1.7,1.5,2.9l0,0c-0.4,1.2-1.7,1.9-2.9,1.5L32,349.9
		C30.8,349.5,30.1,348.2,30.5,347z"/>
</g>
<g>
	<path d="M25.5,363.4L25.5,363.4c0.4-1.2,1.6-2,2.9-1.6L64.1,372c1.2,0.4,2,1.6,1.6,2.9l0,0c-0.4,1.2-1.6,2-2.9,1.6L27,366.3
		C25.8,366,25.1,364.7,25.5,363.4z"/>
</g>
<g>
	<path d="M21,380.1L21,380.1c0.3-1.2,1.6-2,2.8-1.7l36.1,8.9c1.2,0.3,2,1.6,1.7,2.8l0,0c-0.3,1.2-1.6,2-2.8,1.7l-36.1-8.9
		C21.4,382.6,20.7,381.3,21,380.1z"/>
</g>
<g>
	<path d="M17.1,396.9L17.1,396.9c0.3-1.3,1.5-2.1,2.8-1.8l36.4,7.7c1.3,0.3,2.1,1.5,1.8,2.8l0,0c-0.3,1.3-1.5,2.1-2.8,1.8l-36.4-7.7
		C17.6,399.4,16.8,398.1,17.1,396.9z"/>
</g>
<g>
	<path d="M13.8,413.8L13.8,413.8c0.2-1.3,1.4-2.1,2.7-1.9l36.7,6.4c1.3,0.2,2.1,1.4,1.9,2.7l0,0c-0.2,1.3-1.4,2.1-2.7,1.9l-36.7-6.4
		C14.4,416.3,13.6,415.1,13.8,413.8z"/>
</g>
<g>
	<path d="M11.1,430.8L11.1,430.8c0.2-1.3,1.3-2.2,2.6-2l36.9,5.1c1.3,0.2,2.2,1.3,2,2.6l0,0c-0.2,1.3-1.3,2.2-2.6,2l-36.9-5.1
		C11.8,433.3,10.9,432.1,11.1,430.8z"/>
</g>
<g>
	<path d="M8.9,447.9L8.9,447.9c0.1-1.3,1.3-2.2,2.6-2.1l37,3.8c1.3,0.1,2.2,1.3,2.1,2.6l0,0c-0.1,1.3-1.3,2.2-2.6,2.1l-37-3.8
		C9.8,450.3,8.8,449.2,8.9,447.9z"/>
</g>
<g>
	<path d="M7.4,465.1L7.4,465.1c0.1-1.3,1.2-2.2,2.5-2.2l37.1,2.5c1.3,0.1,2.2,1.2,2.2,2.5l0,0c-0.1,1.3-1.2,2.2-2.5,2.2l-37.1-2.5
		C8.3,467.5,7.3,466.4,7.4,465.1z"/>
</g>
<g>
	<path d="M6.5,482.3L6.5,482.3c0-1.3,1.1-2.3,2.4-2.2l37.2,1.2c1.3,0,2.3,1.1,2.2,2.4l0,0c0,1.3-1.1,2.3-2.4,2.2l-37.2-1.2
		C7.5,484.7,6.5,483.6,6.5,482.3z"/>
</g>
<g>
	<path d="M6.2,499.5L6.2,499.5c0-1.3,1-2.3,2.3-2.3l37.2-0.1c1.3,0,2.3,1,2.3,2.3l0,0c0,1.3-1,2.3-2.3,2.3l-37.2,0.1
		C7.2,501.9,6.2,500.8,6.2,499.5z"/>
</g>
<g>
	<path d="M6.5,516.8L6.5,516.8c0-1.3,1-2.4,2.2-2.4l37.2-1.4c1.3,0,2.4,1,2.4,2.2l0,0c0,1.3-1,2.4-2.2,2.4L8.9,519
		C7.6,519.1,6.5,518.1,6.5,516.8z"/>
</g>
<g>
	<path d="M7.4,534L7.4,534c-0.1-1.3,0.9-2.4,2.2-2.5l37.1-2.7c1.3-0.1,2.4,0.9,2.5,2.2l0,0c0.1,1.3-0.9,2.4-2.2,2.5l-37.1,2.7
		C8.6,536.2,7.5,535.3,7.4,534z"/>
</g>
<g>
	<path d="M8.9,551.2L8.9,551.2c-0.1-1.3,0.8-2.4,2.1-2.6l37-4c1.3-0.1,2.4,0.8,2.6,2.1l0,0c0.1,1.3-0.8,2.4-2.1,2.6l-37,4
		C10.1,553.4,9,552.4,8.9,551.2z"/>
</g>
<g>
	<path d="M10.9,568.3L10.9,568.3c-0.2-1.3,0.7-2.4,2-2.6l36.8-5.3c1.3-0.2,2.4,0.7,2.6,2l0,0c0.2,1.3-0.7,2.4-2,2.6l-36.8,5.3
		C12.3,570.4,11.1,569.5,10.9,568.3z"/>
</g>
<g>
	<path d="M13.6,585.3L13.6,585.3c-0.2-1.3,0.6-2.5,1.9-2.7l36.6-6.5c1.3-0.2,2.5,0.6,2.7,1.9l0,0c0.2,1.3-0.6,2.5-1.9,2.7l-36.6,6.5
		C15.1,587.4,13.8,586.6,13.6,585.3z"/>
</g>
<g>
	<path d="M16.9,602.2L16.9,602.2c-0.3-1.3,0.5-2.5,1.8-2.8l36.4-7.8c1.3-0.3,2.5,0.5,2.8,1.8l0,0c0.3,1.3-0.5,2.5-1.8,2.8L19.7,604
		C18.4,604.3,17.2,603.5,16.9,602.2z"/>
</g>
<g>
	<path d="M20.8,619L20.8,619c-0.3-1.2,0.4-2.5,1.7-2.8l36.1-9.1c1.2-0.3,2.5,0.4,2.8,1.7l0,0c0.3,1.2-0.4,2.5-1.7,2.8l-36.1,9.1
		C22.3,621,21.1,620.3,20.8,619z"/>
</g>
<g>
	<path d="M25.2,635.7L25.2,635.7c-0.4-1.2,0.4-2.5,1.6-2.9l35.8-10.3c1.2-0.4,2.5,0.4,2.9,1.6l0,0c0.4,1.2-0.4,2.5-1.6,2.9
		l-35.8,10.3C26.9,637.6,25.6,636.9,25.2,635.7z"/>
</g>
<g>
	<path d="M30.2,652.2L30.2,652.2c-0.4-1.2,0.3-2.5,1.5-2.9l35.4-11.6c1.2-0.4,2.5,0.3,2.9,1.5l0,0c0.4,1.2-0.3,2.5-1.5,2.9
		l-35.4,11.6C31.9,654,30.6,653.4,30.2,652.2z"/>
</g>
<g>
	<path d="M35.8,668.4L35.8,668.4c-0.4-1.2,0.2-2.5,1.4-3l34.9-12.8c1.2-0.4,2.5,0.2,3,1.4l0,0c0.4,1.2-0.2,2.5-1.4,3l-34.9,12.8
		C37.6,670.3,36.3,669.7,35.8,668.4z"/>
</g>
<g>
	<path d="M42,684.6L42,684.6c-4.1-3.4,35.2-15.7,35.8-17c1.2-0.5,2.5,0.1,3,1.3l0,0c0.5,1.2-0.1,2.5-1.3,3l-34.5,14
		C43.8,686.3,42.5,685.7,42,684.6z"/>
</g>
<g>
	<path d="M48.7,700.4L48.7,700.4c-0.5-1.2,0-2.5,1.2-3.1l34-15.2c1.2-0.5,2.5,0,3.1,1.2l0,0c0.5,1.2,0,2.5-1.2,3.1l-34,15.2
		C50.6,702.1,49.2,701.6,48.7,700.4z"/>
</g>
<g>
	<path d="M56,716L56,716c-4.3-3.2,33.9-18.1,34.5-19.5c1.1-0.6,2.5-0.1,3.1,1.1l0,0c4.3,3.2-33.9,18.1-34.5,19.5
		C57.9,717.7,56.5,717.2,56,716z"/>
</g>
<g>
	<path d="M63.8,731.4L63.8,731.4c-4.3-3,33.3-19.2,33.8-20.6c1.1-0.6,2.5-0.2,3.1,1l0,0c4.3,3-33.3,19.2-33.8,20.6
		C65.8,733,64.4,732.5,63.8,731.4z"/>
</g>
<g>
	<path d="M72.1,746.5L72.1,746.5c-0.7-1.1-0.3-2.5,0.8-3.2l32.2-18.7c1.1-0.7,2.5-0.3,3.2,0.8l0,0c0.7,1.1,0.3,2.5-0.8,3.2
		l-32.2,18.7C74.2,748,72.8,747.6,72.1,746.5z"/>
</g>
<g>
	<path d="M81,761.3L81,761.3c-0.7-1.1-0.4-2.5,0.7-3.2l31.5-19.8c1.1-0.7,2.5-0.4,3.2,0.7l0,0c0.7,1.1,0.4,2.5-0.7,3.2L84.2,762
		C83.1,762.7,81.7,762.4,81,761.3z"/>
</g>
<g>
	<path d="M90.4,775.8L90.4,775.8c-0.7-1.1-0.4-2.5,0.6-3.2l30.8-20.9c1.1-0.7,2.5-0.4,3.2,0.6l0,0c0.7,1.1,0.4,2.5-0.6,3.2
		l-30.8,20.9C92.5,777.1,91.1,776.8,90.4,775.8z"/>
</g>
<g>
	<path d="M100.2,789.9L100.2,789.9c-0.8-1-0.5-2.5,0.5-3.3l30.1-21.9c1-0.8,2.5-0.5,3.3,0.5l0,0c0.8,1,0.5,2.5-0.5,3.3
		C131.8,768.6,101.5,795,100.2,789.9z"/>
</g>
<g>
	<path d="M110.6,803.6L110.6,803.6c-0.8-1-0.6-2.5,0.4-3.3l29.3-23c1-0.8,2.5-0.6,3.3,0.4l0,0c0.8,1,0.6,2.5-0.4,3.3l-29.3,23
		C112.9,804.8,111.4,804.7,110.6,803.6z"/>
</g>
<g>
	<path d="M121.4,817.1L121.4,817.1c-4.7-2.3,28.4-25.7,28.7-27.3c1-0.8,2.4-0.7,3.3,0.3l0,0c4.7,2.3-28.4,25.7-28.7,27.3
		C123.7,818.2,122.3,818,121.4,817.1z"/>
</g>
<g>
	<path d="M132.7,830.1L132.7,830.1c-5-2,27.6-26.8,27.8-28.3c0.9-0.9,2.4-0.8,3.3,0.2l0,0c5,2-27.6,26.8-27.8,28.3
		C135.1,831.1,133.6,831,132.7,830.1z"/>
</g>
<g>
	<path d="M144.5,842.7L144.5,842.7c-0.9-0.9-0.9-2.4,0-3.3c1.7-0.3,28.1-30.7,30-25.9l0,0c0.9,0.9,0.9,2.4,0,3.3
		C172.8,817.1,146.4,847.5,144.5,842.7z"/>
</g>
<g>
	<path d="M156.7,854.9L156.7,854.9c-0.9-0.9-1-2.4-0.1-3.3c1.7-0.3,27.1-31.7,29.1-26.9l0,0c0.9,0.9,1,2.4,0.1,3.3
		C184.1,828.3,158.7,859.8,156.7,854.9z"/>
</g>
<g>
	<path d="M169.2,866.7L169.2,866.7c-5.1-1.6,24.5-29.4,24.6-31c0.9-1,2.3-1,3.3-0.2l0,0c5.1,1.6-24.5,29.4-24.6,31
		C171.7,867.4,170.2,867.5,169.2,866.7z"/>
</g>
<g>
	<path d="M182.2,878L182.2,878c-5.2-1.3,23.6-30.4,23.6-31.9c0.8-1,2.3-1.1,3.3-0.3l0,0c5.2,1.3-23.6,30.4-23.6,31.9
		C184.7,878.7,183.2,878.8,182.2,878z"/>
</g>
<g>
	<path d="M195.6,888.8L195.6,888.8c-5.2-1.2,22.4-31.1,22.4-32.7c0.8-1,2.2-1.2,3.3-0.4l0,0c5.2,1.2-22.4,31.1-22.4,32.7
		C198.1,889.4,196.6,889.6,195.6,888.8z"/>
</g>
<g>
	<path d="M209.4,899.2L209.4,899.2c-1-0.8-1.3-2.2-0.5-3.2l21.8-30.2c0.8-1,2.2-1.3,3.2-0.5l0,0c1,0.8,1.3,2.2,0.5,3.2l-21.8,30.2
		C211.9,899.7,210.4,900,209.4,899.2z"/>
</g>
<g>
	<path d="M223.5,909.1L223.5,909.1c-5.2-0.7,20.3-32.6,20.1-34.1c0.7-1.1,2.2-1.3,3.2-0.6l0,0c5.2,0.7-20.3,32.6-20.1,34.1
		C226,909.6,224.6,909.8,223.5,909.1z"/>
</g>
<g>
	<path d="M237.9,918.5L237.9,918.5c-5.3-0.5,19.1-33.3,18.9-34.8c0.7-1.1,2.1-1.4,3.2-0.7l0,0c5.3,0.5-19.1,33.3-18.9,34.8
		C240.5,918.9,239,919.2,237.9,918.5z"/>
</g>
<g>
	<path d="M252.7,927.4c-1.3-0.5-1.3-2.8-0.9-3.2c0.4-0.8,18.5-32.3,18.6-32.4c0.6-1,2.1-1.4,3.1-0.8c1.1,0.6,1.5,2.1,0.9,3.2
		l-18.5,32.3C255.2,927.7,253.8,928,252.7,927.4z"/>
</g>
<g>
	<path d="M267.8,935.8c-1.3-0.5-1.4-2.7-1-3.1c1.9-1.4,17.3-37.9,20.5-33.9c1.1,0.6,1.6,2,1,3.1l-17.4,32.9
		C270.3,936,268.9,936.4,267.8,935.8z"/>
</g>
<g>
	<path d="M283.1,943.6c-1.4-0.5-1.5-2.7-1.1-3.1c1.9-1.5,15.8-38.4,19.3-34.6c1.2,0.6,1.6,2,1.1,3.1l-16.2,33.5
		C285.7,943.7,284.3,944.2,283.1,943.6z"/>
</g>
<g>
	<path d="M298.7,950.9c-1.4-0.4-1.6-2.7-1.2-3.1c0.4-0.8,15.1-34,15.1-34.1c0.5-1.1,1.9-1.6,3-1.1c1.2,0.5,1.7,1.9,1.2,3.1l-15.1,34
		C301.3,950.9,299.9,951.4,298.7,950.9z"/>
</g>
<g>
	<path d="M314.6,957.7c-1.4-0.4-1.7-2.5-1.3-3c0.3-0.8,13.9-34.5,13.9-34.6c0.5-1.1,1.8-1.7,2.9-1.2c1.2,0.5,1.8,1.8,1.3,3
		l-13.9,34.5C317.1,957.6,315.8,958.2,314.6,957.7z"/>
</g>
<g>
	<path d="M330.7,963.9c-1.4-0.3-1.7-2.6-1.4-3c0.3-0.8,12.7-35,12.7-35.1c0.4-1.1,1.8-1.7,3-1.3c1.2,0.4,1.8,1.8,1.4,3l-12.7,35
		C333.2,963.7,331.9,964.3,330.7,963.9z"/>
</g>
<g>
	<path d="M347,969.5c-1.4-0.3-1.9-2.4-1.5-2.9c0.3-0.8,11.4-35.4,11.4-35.5c0.4-1.1,1.7-1.8,2.9-1.4c1.2,0.4,1.9,1.7,1.5,2.9
		L349.9,968C349.5,969.2,348.2,969.9,347,969.5z"/>
</g>
<g>
	<path d="M363.4,974.5c-1.4-0.3-2-2.4-1.6-2.9c0.2-0.8,10.2-35.8,10.2-35.9c0.4-1.1,1.6-1.9,2.9-1.5c1.2,0.4,2,1.6,1.6,2.9
		l-10.2,35.8C366,974.2,364.7,974.9,363.4,974.5z"/>
</g>
<g>
	<path d="M380.1,979c-1.4-0.2-2-2.3-1.7-2.8c0.2-0.8,8.9-36.1,8.9-36.2c0.3-1.1,1.6-1.9,2.8-1.6c1.2,0.3,2,1.6,1.7,2.8l-8.9,36.1
		C382.6,978.6,381.3,979.3,380.1,979z"/>
</g>
<g>
	<path d="M396.9,982.9c-1.5-0.1-2.1-2.3-1.8-2.8c0.2-0.9,7.7-36.4,7.7-36.5c0.3-1.2,1.5-2,2.8-1.7c1.3,0.3,2.1,1.5,1.8,2.8
		l-7.7,36.4C399.4,982.4,398.1,983.2,396.9,982.9z"/>
</g>
<g>
	<path d="M413.8,986.2c-1.5,0-2.2-2.2-1.9-2.7c0.2-0.9,6.4-36.7,6.4-36.8c0.3-1.2,1.4-2,2.7-1.8c1.3,0.2,2.1,1.4,1.9,2.7l-6.4,36.7
		C416.3,985.6,415.1,986.4,413.8,986.2z"/>
</g>
<g>
	<path d="M430.8,988.9c-1.5,0-2.3-2-2-2.6c0.1-0.9,5.1-36.9,5.1-37c0.2-1.2,1.3-2.1,2.6-1.9c1.3,0.2,2.2,1.3,2,2.6l-5.1,36.9
		C433.3,988.2,432.1,989.1,430.8,988.9z"/>
</g>
<g>
	<path d="M447.9,991.1c-1.5,0.1-2.3-2.1-2.1-2.6c0.1-0.9,3.8-37,3.8-37.1c0.2-1.2,1.3-2.1,2.6-2c1.3,0.1,2.2,1.3,2.1,2.6l-3.8,37
		C450.3,990.2,449.2,991.2,447.9,991.1z"/>
</g>
<g>
	<path d="M465.1,992.6c-1.4,0.1-2.4-1.9-2.2-2.5c0.1-0.9,2.5-37.1,2.5-37.2c0.2-1.2,1.2-2.1,2.5-2.1c1.3,0.1,2.2,1.2,2.2,2.5
		l-2.5,37.1C467.5,991.7,466.4,992.7,465.1,992.6z"/>
</g>
<g>
	<path d="M482.3,993.5c-1.5,0.2-2.4-1.8-2.2-2.4c0-0.9,1.2-37.2,1.2-37.3c0.1-1.2,1.1-2.2,2.4-2.1c1.3,0,2.3,1.1,2.2,2.4l-1.2,37.2
		C484.7,992.5,483.6,993.5,482.3,993.5z"/>
</g>
<g>
	<path d="M499.5,993.8c-1.5,0.2-2.5-1.7-2.3-2.3c0-0.9-0.1-37.2-0.1-37.3c0.1-1.2,1-2.2,2.3-2.2c1.3,0,2.3,1,2.3,2.3l0.1,37.2
		C501.9,992.8,500.8,993.8,499.5,993.8z"/>
</g>
<g>
	<path d="M516.8,993.5c-1.5,0.2-2.6-1.7-2.4-2.2c0-0.9-1.4-37.2-1.4-37.3c0.1-1.2,1-2.3,2.2-2.3c1.3,0,2.4,1,2.4,2.2l1.4,37.2
		C519.1,992.4,518.1,993.5,516.8,993.5z"/>
</g>
<g>
	<path d="M534,992.6c-1.4,0.3-2.6-1.6-2.5-2.2c-0.1-0.9-2.7-37.1-2.7-37.2c0-1.2,0.9-2.3,2.2-2.4c1.3-0.1,2.4,0.9,2.5,2.2l2.7,37.1
		C536.2,991.4,535.3,992.5,534,992.6z"/>
</g>
<g>
	<path d="M551.2,991.1c-1.4,0.3-2.7-1.5-2.6-2.1c-0.1-0.9-4-37-4-37.1c0-1.2,0.8-2.3,2.1-2.5c1.3-0.1,2.4,0.8,2.6,2.1l4,37
		C553.4,989.9,552.4,991,551.2,991.1z"/>
</g>
<g>
	<path d="M568.3,989.1c-1.4,0.4-2.7-1.4-2.6-2c-0.1-0.9-5.3-36.8-5.3-36.9c-0.1-1.2,0.8-2.3,2-2.5c1.3-0.2,2.4,0.7,2.6,2l5.3,36.8
		C570.4,987.7,569.5,988.9,568.3,989.1z"/>
</g>
<g>
	<path d="M585.3,986.4c-1.4,0.4-2.8-1.3-2.7-1.9c-0.1-0.9-6.5-36.6-6.5-36.7c-0.1-1.3,0.7-2.4,1.9-2.6c1.3-0.2,2.5,0.6,2.7,1.9
		l6.5,36.6C587.4,984.9,586.6,986.2,585.3,986.4z"/>
</g>
<g>
	<path d="M602.2,983.1c-1.4,0.5-2.8-1.2-2.8-1.8c-0.2-0.9-7.8-36.4-7.8-36.5c-0.2-1.3,0.6-2.4,1.8-2.7c1.3-0.3,2.5,0.5,2.8,1.8
		l7.8,36.4C604.3,981.6,603.5,982.8,602.2,983.1z"/>
</g>
<g>
	<path d="M619,979.2c-1.3,0.5-2.9-1.1-2.8-1.7c-0.2-0.8-9.1-36.1-9.1-36.2c-0.2-1.2,0.5-2.4,1.7-2.7c1.2-0.3,2.5,0.4,2.8,1.7
		l9.1,36.1C621,977.7,620.3,978.9,619,979.2z"/>
</g>
<g>
	<path d="M635.7,974.8c-1.3,0.6-2.9-1-2.9-1.6c-0.2-0.8-10.3-35.8-10.3-35.9c-0.3-1.2,0.5-2.4,1.6-2.8c1.2-0.4,2.5,0.4,2.9,1.6
		l10.3,35.8C637.6,973.1,636.9,974.4,635.7,974.8z"/>
</g>
<g>
	<path d="M652.2,969.8c-1.3,0.6-2.9-0.9-2.9-1.5c-0.3-0.8-11.6-35.4-11.6-35.5c-0.3-1.2,0.4-2.4,1.5-2.8c1.2-0.4,2.5,0.3,2.9,1.5
		l11.6,35.4C654,968.1,653.4,969.4,652.2,969.8z"/>
</g>
<g>
	<path d="M668.4,964.2c-1.3,0.6-3-0.8-3-1.4c-0.3-0.8-12.8-34.9-12.8-35c-0.3-1.2,0.3-2.4,1.4-2.9c1.2-0.4,2.5,0.2,3,1.4l12.8,34.9
		C670.3,962.4,669.7,963.7,668.4,964.2z"/>
</g>
<g>
	<path d="M684.6,958c-1.3,0.7-3-0.7-3-1.3c-0.3-0.8-14-34.5-14-34.6c-0.4-1.2,0.2-2.4,1.3-2.9c1.2-0.5,2.5,0.1,3,1.3l14,34.5
		C686.3,956.2,685.7,957.5,684.6,958z"/>
</g>
<g>
	<path d="M700.4,951.3c-1.2,0.7-3-0.6-3.1-1.2c-0.4-0.8-15.2-34-15.2-34.1c-0.4-1.2,0.1-2.4,1.2-3c1.2-0.5,2.5,0,3.1,1.2l15.2,34
		C702.1,949.4,701.6,950.8,700.4,951.3z"/>
</g>
<g>
	<path d="M716,944c-1.1,0.8-3-0.5-3.1-1.1c-0.4-0.8-16.4-33.4-16.4-33.5c-0.5-1.1,0-2.4,1.2-3c3.2-4.3,18.1,33.9,19.5,34.5
		C717.7,942.1,717.2,943.5,716,944z"/>
</g>
<g>
	<path d="M731.4,936.2c-1.2,0.8-3-0.4-3.1-1c-0.4-0.8-17.5-32.8-17.6-32.9c-0.5-1.1-0.1-2.4,1.1-3c3-4.3,19.2,33.3,20.6,33.8
		C733,934.2,732.5,935.6,731.4,936.2z"/>
</g>
<g>
	<path d="M746.5,927.9L746.5,927.9c-1.1,0.7-2.5,0.3-3.2-0.8l-18.7-32.2c-0.7-1.1-0.3-2.5,0.8-3.2l0,0c1.1-0.7,2.5-0.3,3.2,0.8
		l18.7,32.2C748,925.8,747.6,927.2,746.5,927.9z"/>
</g>
<g>
	<path d="M761.3,919L761.3,919c-1.1,0.7-2.5,0.4-3.2-0.7l-19.8-31.5c-0.7-1.1-0.4-2.5,0.7-3.2l0,0c1.1-0.7,2.5-0.4,3.2,0.7
		l19.8,31.5C762.7,916.9,762.4,918.3,761.3,919z"/>
</g>
<g>
	<path d="M775.8,909.6L775.8,909.6c-1.1,0.7-2.5,0.4-3.2-0.6l-20.9-30.8c-0.7-1.1-0.4-2.5,0.6-3.2l0,0c1.1-0.7,2.5-0.4,3.2,0.6
		l20.9,30.8C777.1,907.5,776.8,908.9,775.8,909.6z"/>
</g>
<g>
	<path d="M789.9,899.8L789.9,899.8c-1,0.8-2.5,0.5-3.3-0.5l-21.9-30.1c-0.8-1-0.5-2.5,0.5-3.3l0,0c1-0.8,2.5-0.5,3.3,0.5
		C768.6,868.2,795,898.5,789.9,899.8z"/>
</g>
<g>
	<path d="M803.6,889.4L803.6,889.4c-1,0.8-2.5,0.6-3.3-0.4l-23-29.3c-0.8-1-0.6-2.5,0.4-3.3l0,0c1-0.8,2.5-0.6,3.3,0.4l23,29.3
		C804.8,887.1,804.7,888.6,803.6,889.4z"/>
</g>
<g>
	<path d="M817.1,878.6L817.1,878.6c-2.3,4.7-25.7-28.4-27.3-28.7c-0.8-1-0.7-2.4,0.3-3.3l0,0c2.3-4.7,25.7,28.4,27.3,28.7
		C818.2,876.3,818,877.7,817.1,878.6z"/>
</g>
<g>
	<path d="M830.1,867.3L830.1,867.3c-2,5-26.8-27.6-28.3-27.8c-0.9-0.9-0.8-2.4,0.2-3.3l0,0c2-5,26.8,27.6,28.3,27.8
		C831.1,864.9,831,866.4,830.1,867.3z"/>
</g>
<g>
	<path d="M842.7,855.5L842.7,855.5c-0.9,0.9-2.4,0.9-3.3,0c-0.3-1.7-30.7-28.1-25.9-30l0,0c0.9-0.9,2.4-0.9,3.3,0
		C817.1,827.2,847.5,853.6,842.7,855.5z"/>
</g>
<g>
	<path d="M854.9,843.3L854.9,843.3c-0.9,0.9-2.4,1-3.3,0.1c-0.3-1.7-31.7-27.1-26.9-29.1l0,0c0.9-0.9,2.4-1,3.3-0.1
		C828.3,815.9,859.8,841.3,854.9,843.3z"/>
</g>
<g>
	<path d="M866.7,830.8L866.7,830.8c-1.6,5.1-29.4-24.5-31-24.6c-1-0.9-1-2.3-0.2-3.3l0,0c1.6-5.1,29.4,24.5,31,24.6
		C867.4,828.3,867.5,829.8,866.7,830.8z"/>
</g>
<g>
	<path d="M878,817.8L878,817.8c-1.3,5.2-30.4-23.6-31.9-23.6c-1-0.8-1.1-2.3-0.3-3.3l0,0c1.3-5.2,30.4,23.6,31.9,23.6
		C878.7,815.3,878.8,816.8,878,817.8z"/>
</g>
<g>
	<path d="M888.8,804.4L888.8,804.4c-1.2,5.2-31.1-22.4-32.7-22.4c-1-0.8-1.2-2.2-0.4-3.3l0,0c1.2-5.2,31.1,22.4,32.7,22.4
		C889.4,801.9,889.6,803.4,888.8,804.4z"/>
</g>
<g>
	<path d="M899.2,790.6L899.2,790.6c-0.8,1-2.2,1.3-3.2,0.5l-30.2-21.8c-1-0.8-1.3-2.2-0.5-3.2l0,0c0.8-1,2.2-1.3,3.2-0.5l30.2,21.8
		C899.7,788.1,900,789.6,899.2,790.6z"/>
</g>
<g>
	<path d="M909.1,776.5L909.1,776.5c-0.7,5.2-32.6-20.3-34.1-20.1c-1.1-0.7-1.3-2.2-0.6-3.2l0,0c0.7-5.2,32.6,20.3,34.1,20.1
		C909.6,774,909.8,775.4,909.1,776.5z"/>
</g>
<g>
	<path d="M918.5,762.1L918.5,762.1c-0.5,5.3-33.3-19.1-34.8-18.9c-1.1-0.7-1.4-2.1-0.7-3.2l0,0c0.5-5.3,33.3,19.1,34.8,18.9
		C918.9,759.5,919.2,761,918.5,762.1z"/>
</g>
<g>
	<path d="M927.4,747.3L927.4,747.3c-0.6,1.1-2.1,1.5-3.2,0.9L892,729.6c-1.1-0.6-1.5-2.1-0.9-3.2l0,0c0.6-1.1,2.1-1.5,3.2-0.9
		l32.3,18.5C927.7,744.8,928,746.2,927.4,747.3z"/>
</g>
<g>
	<path d="M935.8,732.2L935.8,732.2c-0.6,1.1-2,1.6-3.1,1l-32.9-17.4c-1.1-0.6-1.6-2-1-3.1l0,0c0.6-1.1,2-1.6,3.1-1l32.9,17.4
		C936,729.7,936.4,731.1,935.8,732.2z"/>
</g>
<g>
	<path d="M943.6,716.9L943.6,716.9c-0.6,1.2-2,1.6-3.1,1.1c-0.8-1.5-38.6-15.9-34.6-19.3l0,0c0.6-1.2,2-1.6,3.1-1.1l33.5,16.2
		C943.7,714.3,944.2,715.7,943.6,716.9z"/>
</g>
<g>
	<path d="M950.9,701.3L950.9,701.3c-0.5,1.2-1.9,1.7-3.1,1.2l-34-15.1c-1.2-0.5-1.7-1.9-1.2-3.1l0,0c0.5-1.2,1.9-1.7,3.1-1.2
		l34,15.1C950.9,698.7,951.4,700.1,950.9,701.3z"/>
</g>
<g>
	<path d="M957.7,685.4L957.7,685.4c-0.5,1.2-1.8,1.8-3,1.3l-34.5-13.9c-1.2-0.5-1.8-1.8-1.3-3l0,0c0.5-1.2,1.8-1.8,3-1.3l34.5,13.9
		C957.6,682.9,958.2,684.2,957.7,685.4z"/>
</g>
<g>
	<path d="M963.9,669.3L963.9,669.3c-0.4,1.2-1.8,1.8-3,1.4l-35-12.7c-1.2-0.4-1.8-1.8-1.4-3l0,0c0.4-1.2,1.8-1.8,3-1.4l35,12.7
		C963.7,666.8,964.3,668.1,963.9,669.3z"/>
</g>
<g>
	<path d="M969.5,653L969.5,653c-0.4,1.2-1.7,1.9-2.9,1.5l-35.4-11.4c-1.2-0.4-1.9-1.7-1.5-2.9l0,0c0.4-1.2,1.7-1.9,2.9-1.5
		l35.4,11.4C969.2,650.5,969.9,651.8,969.5,653z"/>
</g>
<g>
	<path d="M974.5,636.6L974.5,636.6c-0.4,1.2-1.6,2-2.9,1.6L935.9,628c-1.2-0.4-2-1.6-1.6-2.9l0,0c0.4-1.2,1.6-2,2.9-1.6l35.8,10.2
		C974.2,634,974.9,635.3,974.5,636.6z"/>
</g>
<g>
	<path d="M979,619.9L979,619.9c-0.3,1.2-1.6,2-2.8,1.7l-36.1-8.9c-1.2-0.3-2-1.6-1.7-2.8l0,0c0.3-1.2,1.6-2,2.8-1.7l36.1,8.9
		C978.6,617.4,979.3,618.7,979,619.9z"/>
</g>
<g>
	<path d="M982.9,603.1L982.9,603.1c-0.3,1.3-1.5,2.1-2.8,1.8l-36.4-7.7c-1.3-0.3-2.1-1.5-1.8-2.8l0,0c0.3-1.3,1.5-2.1,2.8-1.8
		l36.4,7.7C982.4,600.6,983.2,601.9,982.9,603.1z"/>
</g>
<g>
	<path d="M986.2,586.2L986.2,586.2c-0.2,1.3-1.4,2.1-2.7,1.9l-36.7-6.4c-1.3-0.2-2.1-1.4-1.9-2.7l0,0c0.2-1.3,1.4-2.1,2.7-1.9
		l36.7,6.4C985.6,583.7,986.4,584.9,986.2,586.2z"/>
</g>
<g>
	<path d="M988.9,569.2L988.9,569.2c-0.2,1.3-1.3,2.2-2.6,2l-36.9-5.1c-1.3-0.2-2.2-1.3-2-2.6l0,0c0.2-1.3,1.3-2.2,2.6-2l36.9,5.1
		C988.2,566.7,989.1,567.9,988.9,569.2z"/>
</g>
<g>
	<path d="M991.1,552.1L991.1,552.1c-0.1,1.3-1.3,2.2-2.6,2.1l-37-3.8c-1.3-0.1-2.2-1.3-2.1-2.6l0,0c0.1-1.3,1.3-2.2,2.6-2.1l37,3.8
		C990.2,549.7,991.2,550.8,991.1,552.1z"/>
</g>
<g>
	<path d="M992.6,534.9L992.6,534.9c-0.1,1.3-1.2,2.2-2.5,2.2l-37.1-2.5c-1.3-0.1-2.2-1.2-2.2-2.5l0,0c0.1-1.3,1.2-2.2,2.5-2.2
		l37.1,2.5C991.7,532.5,992.7,533.6,992.6,534.9z"/>
</g>
<g>
	<path d="M993.5,517.7L993.5,517.7c0,1.3-1.1,2.3-2.4,2.2l-37.2-1.2c-1.3,0-2.3-1.1-2.2-2.4l0,0c0-1.3,1.1-2.3,2.4-2.2l37.2,1.2
		C992.5,515.3,993.5,516.4,993.5,517.7z"/>
</g>
<g>
	<path d="M993.8,500.5L993.8,500.5c0,1.3-1,2.3-2.3,2.3l-37.2,0.1c-1.3,0-2.3-1-2.3-2.3l0,0c0-1.3,1-2.3,2.3-2.3l37.2-0.1
		C992.8,498.1,993.8,499.2,993.8,500.5z"/>
</g>
<g>
	<path d="M993.5,483.2L993.5,483.2c0,1.3-1,2.4-2.2,2.4l-37.2,1.4c-1.3,0-2.4-1-2.4-2.2l0,0c0-1.3,1-2.4,2.2-2.4l37.2-1.4
		C992.4,480.9,993.5,481.9,993.5,483.2z"/>
</g>
<g>
	<path d="M992.6,466L992.6,466c0.1,1.3-0.9,2.4-2.2,2.5l-37.1,2.7c-1.3,0.1-2.4-0.9-2.5-2.2l0,0c-0.1-1.3,0.9-2.4,2.2-2.5l37.1-2.7
		C991.4,463.8,992.5,464.7,992.6,466z"/>
</g>
<g>
	<path d="M991.1,448.8L991.1,448.8c0.1,1.3-0.8,2.4-2.1,2.6l-37,4c-1.3,0.1-2.4-0.8-2.6-2.1l0,0c-0.1-1.3,0.8-2.4,2.1-2.6l37-4
		C989.9,446.6,991,447.6,991.1,448.8z"/>
</g>
<g>
	<path d="M989.1,431.7L989.1,431.7c0.2,1.3-0.7,2.4-2,2.6l-36.8,5.3c-1.3,0.2-2.4-0.7-2.6-2l0,0c-0.2-1.3,0.7-2.4,2-2.6l36.8-5.3
		C987.7,429.6,988.9,430.5,989.1,431.7z"/>
</g>
<g>
	<path d="M986.4,414.7L986.4,414.7c0.2,1.3-0.6,2.5-1.9,2.7l-36.6,6.5c-1.3,0.2-2.5-0.6-2.7-1.9l0,0c-0.2-1.3,0.6-2.5,1.9-2.7
		l36.6-6.5C984.9,412.6,986.2,413.4,986.4,414.7z"/>
</g>
<g>
	<path d="M983.1,397.8L983.1,397.8c0.3,1.3-0.5,2.5-1.8,2.8l-36.4,7.8c-1.3,0.3-2.5-0.5-2.8-1.8l0,0c-0.3-1.3,0.5-2.5,1.8-2.8
		l36.4-7.8C981.6,395.7,982.8,396.5,983.1,397.8z"/>
</g>
<g>
	<path d="M979.2,381L979.2,381c0.3,1.2-0.4,2.5-1.7,2.8l-36.1,9.1c-1.2,0.3-2.5-0.4-2.8-1.7l0,0c-0.3-1.2,0.4-2.5,1.7-2.8l36.1-9.1
		C977.7,379,978.9,379.7,979.2,381z"/>
</g>
<g>
	<path d="M974.8,364.3L974.8,364.3c0.4,1.2-0.4,2.5-1.6,2.9l-35.8,10.3c-1.2,0.4-2.5-0.4-2.9-1.6l0,0c-0.4-1.2,0.4-2.5,1.6-2.9
		l35.8-10.3C973.1,362.4,974.4,363.1,974.8,364.3z"/>
</g>
<g>
	<path d="M969.8,347.8L969.8,347.8c0.4,1.2-0.3,2.5-1.5,2.9l-35.4,11.6c-1.2,0.4-2.5-0.3-2.9-1.5l0,0c-0.4-1.2,0.3-2.5,1.5-2.9
		l35.4-11.6C968.1,346,969.4,346.6,969.8,347.8z"/>
</g>
<g>
	<path d="M964.2,331.6L964.2,331.6c0.4,1.2-0.2,2.5-1.4,3l-34.9,12.8c-1.2,0.4-2.5-0.2-3-1.4l0,0c-0.4-1.2,0.2-2.5,1.4-3l34.9-12.8
		C962.4,329.7,963.7,330.3,964.2,331.6z"/>
</g>
<g>
	<path d="M958,315.4L958,315.4c4.1,3.4-35.2,15.7-35.8,17c-1.2,0.5-2.5-0.1-3-1.3l0,0c-0.5-1.2,0.1-2.5,1.3-3l34.5-14
		C956.2,313.7,957.5,314.3,958,315.4z"/>
</g>
<g>
	<path d="M951.3,299.6L951.3,299.6c0.5,1.2,0,2.5-1.2,3.1l-34,15.2c-1.2,0.5-2.5,0-3.1-1.2l0,0c-0.5-1.2,0-2.5,1.2-3.1l34-15.2
		C949.4,297.9,950.8,298.4,951.3,299.6z"/>
</g>
<g>
	<path d="M944,284L944,284c4.3,3.2-33.9,18.1-34.5,19.5c-1.1,0.6-2.5,0.1-3.1-1.1l0,0c-4.3-3.2,33.9-18.1,34.5-19.5
		C942.1,282.3,943.5,282.8,944,284z"/>
</g>
<g>
	<path d="M936.2,268.6L936.2,268.6c4.3,3-33.3,19.2-33.8,20.6c-1.1,0.6-2.5,0.2-3.1-1l0,0c-4.3-3,33.3-19.2,33.8-20.6
		C934.2,267,935.6,267.5,936.2,268.6z"/>
</g>
<g>
	<path d="M927.9,253.5L927.9,253.5c0.7,1.1,0.3,2.5-0.8,3.2l-32.2,18.7c-1.1,0.7-2.5,0.3-3.2-0.8l0,0c-0.7-1.1-0.3-2.5,0.8-3.2
		l32.2-18.7C925.8,252,927.2,252.4,927.9,253.5z"/>
</g>
<g>
	<path d="M919,238.7L919,238.7c0.7,1.1,0.4,2.5-0.7,3.2l-31.5,19.8c-1.1,0.7-2.5,0.4-3.2-0.7l0,0c-0.7-1.1-0.4-2.5,0.7-3.2
		l31.5-19.8C916.9,237.3,918.3,237.6,919,238.7z"/>
</g>
<g>
	<path d="M909.6,224.2L909.6,224.2c0.7,1.1,0.4,2.5-0.6,3.2l-30.8,20.9c-1.1,0.7-2.5,0.4-3.2-0.6l0,0c-0.7-1.1-0.4-2.5,0.6-3.2
		l30.8-20.9C907.5,222.9,908.9,223.2,909.6,224.2z"/>
</g>
<g>
	<path d="M899.8,210.1L899.8,210.1c0.8,1,0.5,2.5-0.5,3.3l-30.1,21.9c-1,0.8-2.5,0.5-3.3-0.5l0,0c-0.8-1-0.5-2.5,0.5-3.3
		C868.2,231.4,898.5,205,899.8,210.1z"/>
</g>
<g>
	<path d="M889.4,196.4L889.4,196.4c0.8,1,0.6,2.5-0.4,3.3l-29.3,23c-1,0.8-2.5,0.6-3.3-0.4l0,0c-0.8-1-0.6-2.5,0.4-3.3l29.3-23
		C887.1,195.2,888.6,195.3,889.4,196.4z"/>
</g>
<g>
	<path d="M878.6,182.9L878.6,182.9c4.7,2.3-28.4,25.7-28.7,27.3c-1,0.8-2.4,0.7-3.3-0.3l0,0c-4.7-2.3,28.4-25.7,28.7-27.3
		C876.3,181.8,877.7,182,878.6,182.9z"/>
</g>
<g>
	<path d="M867.3,169.9L867.3,169.9c5,2-27.6,26.8-27.8,28.3c-0.9,0.9-2.4,0.8-3.3-0.2l0,0c-5-2,27.6-26.8,27.8-28.3
		C864.9,168.9,866.4,169,867.3,169.9z"/>
</g>
<g>
	<path d="M855.5,157.3L855.5,157.3c0.9,0.9,0.9,2.4,0,3.3c-1.7,0.3-28.1,30.7-30,25.9l0,0c-0.9-0.9-0.9-2.4,0-3.3
		C827.2,182.9,853.6,152.5,855.5,157.3z"/>
</g>
<g>
	<path d="M843.3,145.1L843.3,145.1c0.9,0.9,1,2.4,0.1,3.3c-1.7,0.3-27.1,31.7-29.1,26.9l0,0c-0.9-0.9-1-2.4-0.1-3.3
		C815.9,171.7,841.3,140.2,843.3,145.1z"/>
</g>
<g>
	<path d="M830.8,133.3L830.8,133.3c5.1,1.6-24.5,29.4-24.6,31c-0.9,1-2.3,1-3.3,0.2l0,0c-5.1-1.6,24.5-29.4,24.6-31
		C828.3,132.6,829.8,132.5,830.8,133.3z"/>
</g>
<g>
	<path d="M817.8,122L817.8,122c5.2,1.3-23.6,30.4-23.6,31.9c-0.8,1-2.3,1.1-3.3,0.3l0,0c-5.2-1.3,23.6-30.4,23.6-31.9
		C815.3,121.3,816.8,121.2,817.8,122z"/>
</g>
<g>
	<path d="M804.4,111.2L804.4,111.2c5.2,1.2-22.4,31.1-22.4,32.7c-0.8,1-2.2,1.2-3.3,0.4l0,0c-5.2-1.2,22.4-31.1,22.4-32.7
		C801.9,110.6,803.4,110.4,804.4,111.2z"/>
</g>
<g>
	<path d="M790.6,100.8L790.6,100.8c1,0.8,1.3,2.2,0.5,3.2l-21.8,30.2c-0.8,1-2.2,1.3-3.2,0.5l0,0c-1-0.8-1.3-2.2-0.5-3.2l21.8-30.2
		C788.1,100.3,789.6,100,790.6,100.8z"/>
</g>
<g>
	<path d="M776.5,90.9L776.5,90.9c5.2,0.7-20.3,32.6-20.1,34.1c-0.7,1.1-2.2,1.3-3.2,0.6l0,0c-5.2-0.7,20.3-32.6,20.1-34.1
		C774,90.4,775.4,90.2,776.5,90.9z"/>
</g>
<g>
	<path d="M762.1,81.5L762.1,81.5c5.3,0.5-19.1,33.3-18.9,34.8c-0.7,1.1-2.1,1.4-3.2,0.7l0,0c-5.3-0.5,19.1-33.3,18.9-34.8
		C759.5,81.1,761,80.8,762.1,81.5z"/>
</g>
<g>
	<path d="M747.3,72.6L747.3,72.6c1.1,0.6,1.5,2.1,0.9,3.2L729.6,108c-0.6,1.1-2.1,1.5-3.2,0.9c-1.3-0.5-1.3-2.8-0.9-3.2
		c0.5-0.8,18.4-32.3,18.6-32.4C744.9,72.3,746.2,72,747.3,72.6z"/>
</g>
<g>
	<path d="M732.2,64.2L732.2,64.2c1.1,0.6,1.6,2,1,3.1l-17.4,32.9c-0.6,1.1-2,1.6-3.1,1c-1.3-0.5-1.4-2.7-1-3.1
		C713.6,96.7,729,60.1,732.2,64.2z"/>
</g>
<g>
	<path d="M716.9,56.4L716.9,56.4c1.2,0.6,1.6,2,1.1,3.1c-1.5,0.8-15.9,38.6-19.3,34.6c-1.4-0.5-1.5-2.7-1.1-3.1
		c0.4-0.8,16.2-33.5,16.2-33.6C714.4,56.3,715.7,55.8,716.9,56.4z"/>
</g>
<g>
	<path d="M701.3,49.1L701.3,49.1c1.2,0.5,1.7,1.9,1.2,3.1l-15.1,34c-0.5,1.2-1.9,1.7-3.1,1.2c-1.4-0.4-1.6-2.7-1.2-3.1
		c0.4-0.8,15.1-34,15.1-34.1C698.8,49.1,700.1,48.6,701.3,49.1z"/>
</g>
<g>
	<path d="M685.4,42.3L685.4,42.3c1.2,0.5,1.8,1.8,1.3,3l-13.9,34.5c-0.5,1.2-1.8,1.8-3,1.3c-1.4-0.4-1.7-2.5-1.3-3
		c0.3-0.8,13.9-34.5,13.9-34.6C683,42.4,684.2,41.8,685.4,42.3z"/>
</g>
<g>
	<path d="M669.3,36.1L669.3,36.1c1.2,0.4,1.8,1.8,1.4,3l-12.7,35c-0.4,1.2-1.8,1.8-3,1.4c-1.4-0.3-1.7-2.6-1.4-3
		c0.3-0.8,12.7-35,12.7-35.1C666.9,36.3,668.1,35.7,669.3,36.1z"/>
</g>
<g>
	<path d="M653,30.5L653,30.5c1.2,0.4,1.9,1.7,1.5,2.9l-11.4,35.4c-0.4,1.2-1.7,1.9-2.9,1.5c-1.4-0.3-1.9-2.4-1.5-2.9
		c0.3-0.8,11.4-35.4,11.4-35.5C650.6,30.8,651.8,30.1,653,30.5z"/>
</g>
<g>
	<path d="M636.6,25.5L636.6,25.5c1.2,0.4,2,1.6,1.6,2.9L628,64.1c-0.4,1.2-1.6,2-2.9,1.6c-1.4-0.3-2-2.4-1.6-2.9
		c0.2-0.8,10.2-35.8,10.2-35.9C634.1,25.8,635.3,25.1,636.6,25.5z"/>
</g>
<g>
	<path d="M619.9,21L619.9,21c1.2,0.3,2,1.6,1.7,2.8l-8.9,36.1c-0.3,1.2-1.6,2-2.8,1.7c-1.4-0.2-2-2.3-1.7-2.8
		c0.2-0.8,8.9-36.1,8.9-36.2C617.5,21.4,618.7,20.7,619.9,21z"/>
</g>
<g>
	<path d="M603.1,17.1L603.1,17.1c1.3,0.3,2.1,1.5,1.8,2.8l-7.7,36.4c-0.3,1.3-1.5,2.1-2.8,1.8c-1.5-0.1-2.1-2.3-1.8-2.8
		c0.2-0.9,7.7-36.4,7.7-36.5C600.7,17.6,601.9,16.8,603.1,17.1z"/>
</g>
<g>
	<path d="M586.2,13.8L586.2,13.8c1.3,0.2,2.1,1.4,1.9,2.7l-6.4,36.7c-0.2,1.3-1.4,2.1-2.7,1.9c-1.5,0-2.2-2.2-1.9-2.7
		c0.2-0.9,6.4-36.7,6.4-36.8C583.8,14.4,584.9,13.6,586.2,13.8z"/>
</g>
<g>
	<path d="M569.2,11.1L569.2,11.1c1.3,0.2,2.2,1.3,2,2.6l-5.1,36.9c-0.2,1.3-1.3,2.2-2.6,2c-1.5,0-2.3-2-2-2.6
		c0.1-0.9,5.1-36.9,5.1-37C566.8,11.7,567.9,10.9,569.2,11.1z"/>
</g>
<g>
	<path d="M552.1,8.9L552.1,8.9c1.3,0.1,2.2,1.3,2.1,2.6l-3.8,37c-0.1,1.3-1.3,2.2-2.6,2.1c-1.5,0.1-2.3-2.1-2.1-2.6
		c0.1-0.9,3.8-37,3.8-37.1C549.8,9.7,550.8,8.8,552.1,8.9z"/>
</g>
<g>
	<path d="M534.9,7.4L534.9,7.4c1.3,0.1,2.2,1.2,2.2,2.5L534.6,47c-0.1,1.3-1.2,2.2-2.5,2.2c-1.4,0.1-2.4-2-2.2-2.5
		c0.1-0.9,2.5-37.1,2.5-37.2C532.6,8.2,533.6,7.3,534.9,7.4z"/>
</g>
<g>
	<path d="M517.7,6.5L517.7,6.5c1.3,0,2.3,1.1,2.2,2.4l-1.2,37.2c0,1.3-1.1,2.3-2.4,2.2c-1.5,0.2-2.4-1.8-2.2-2.4
		c0-0.9,1.2-37.2,1.2-37.3C515.4,7.4,516.4,6.5,517.7,6.5z"/>
</g>
<g>
	<path d="M500.5,6.2L500.5,6.2c1.3,0,2.3,1,2.3,2.3l0.1,37.2c0,1.3-1,2.3-2.3,2.3c-1.5,0.2-2.5-1.7-2.3-2.3c0-0.9-0.1-37.2-0.1-37.3
		C498.2,7.1,499.2,6.2,500.5,6.2z"/>
</g>
<g>
	<path d="M483.2,6.5L483.2,6.5c1.3,0,2.4,1,2.4,2.2l1.4,37.2c0,1.3-1,2.4-2.2,2.4c-1.5,0.2-2.6-1.7-2.4-2.2c0-0.9-1.4-37.2-1.4-37.3
		C481,7.5,481.9,6.5,483.2,6.5z"/>
</g>
<g>
	<path d="M466,7.4L466,7.4c1.3-0.1,2.4,0.9,2.5,2.2l2.7,37.1c0.1,1.3-0.9,2.4-2.2,2.5c-1.4,0.3-2.6-1.6-2.5-2.2
		c-0.1-0.9-2.7-37.1-2.7-37.2C463.9,8.5,464.7,7.5,466,7.4z"/>
</g>
<g>
	<path d="M448.8,8.9L448.8,8.9c1.3-0.1,2.4,0.8,2.6,2.1l4,37c0.1,1.3-0.8,2.4-2.1,2.6c-1.4,0.3-2.7-1.5-2.6-2.1
		c-0.1-0.9-4-37-4-37.1C446.7,10,447.6,9,448.8,8.9z"/>
</g>
<g>
	<path d="M431.7,10.9L431.7,10.9c1.3-0.2,2.4,0.7,2.6,2l5.3,36.8c0.2,1.3-0.7,2.4-2,2.6c-1.4,0.4-2.7-1.4-2.6-2
		c-0.1-0.9-5.3-36.8-5.3-36.9C429.7,12.2,430.5,11.1,431.7,10.9z"/>
</g>
<g>
	<path d="M414.7,13.6L414.7,13.6c1.3-0.2,2.5,0.6,2.7,1.9l6.5,36.6c0.2,1.3-0.6,2.5-1.9,2.7c-1.4,0.4-2.8-1.3-2.7-1.9
		c-0.1-0.8-6.5-36.6-6.5-36.7C412.6,15,413.4,13.8,414.7,13.6z"/>
</g>
<g>
	<path d="M397.8,16.9L397.8,16.9c1.3-0.3,2.5,0.5,2.8,1.8l7.8,36.4c0.3,1.3-0.5,2.5-1.8,2.8c-1.4,0.5-2.8-1.2-2.8-1.8
		c-0.2-0.9-7.8-36.4-7.8-36.5C395.8,18.3,396.5,17.2,397.8,16.9z"/>
</g>
<g>
	<path d="M381,20.8L381,20.8c1.2-0.3,2.5,0.4,2.8,1.7l9.1,36.1c0.3,1.2-0.4,2.5-1.7,2.8c-1.3,0.5-2.9-1.1-2.8-1.7
		c-0.2-0.9-9.1-36.1-9.1-36.2C379,22.2,379.7,21.1,381,20.8z"/>
</g>
<g>
	<path d="M364.3,25.2L364.3,25.2c1.2-0.4,2.5,0.4,2.9,1.6l10.3,35.8c0.4,1.2-0.4,2.5-1.6,2.9c-1.3,0.6-2.9-1.1-2.9-1.6
		c-0.2-0.8-10.3-35.8-10.3-35.9C362.4,26.8,363.1,25.6,364.3,25.2z"/>
</g>
<g>
	<path d="M347.8,30.2L347.8,30.2c1.2-0.4,2.5,0.3,2.9,1.5l11.6,35.4c0.4,1.2-0.3,2.5-1.5,2.9c-1.3,0.6-2.9-0.9-2.9-1.5
		C358.2,66.2,342.6,29.7,347.8,30.2z"/>
</g>
<g>
	<path d="M331.6,35.8L331.6,35.8c1.2-0.4,2.5,0.2,3,1.4l12.8,34.9c0.4,1.2-0.2,2.5-1.4,3c-1.3,0.6-3-0.8-3-1.4
		c-0.3-0.8-12.8-34.9-12.8-35C329.7,37.5,330.3,36.3,331.6,35.8z"/>
</g>
<g>
	<path d="M315.4,42L315.4,42c3.4-4.1,15.7,35.2,17,35.8c0.5,1.2-0.1,2.5-1.3,3c-1.3,0.7-3-0.7-3-1.3c-0.3-0.8-14-34.5-14-34.6
		C313.7,43.7,314.3,42.5,315.4,42z"/>
</g>
<g>
	<path d="M299.6,48.7L299.6,48.7c1.2-0.5,2.5,0,3.1,1.2l15.2,34c0.5,1.2,0,2.5-1.2,3.1c-1.2,0.7-3-0.6-3.1-1.2
		c-0.4-0.8-15.2-34-15.2-34.1C297.9,50.5,298.4,49.2,299.6,48.7z"/>
</g>
<g>
	<path d="M284,56L284,56c3.2-4.3,18.1,33.9,19.5,34.5c0.6,1.1,0.1,2.5-1.1,3.1c-1.1,0.8-3-0.5-3.1-1.1c-0.4-0.8-16.4-33.4-16.4-33.5
		C282.3,57.8,282.8,56.5,284,56z"/>
</g>
<g>
	<path d="M268.6,63.8L268.6,63.8c3-4.3,19.2,33.3,20.6,33.8c0.6,1.1,0.2,2.5-1,3.1c-1.1,0.8-3-0.4-3.1-1
		c-0.4-0.8-17.5-32.8-17.5-32.9C267,65.7,267.5,64.4,268.6,63.8z"/>
</g>
<g>
	<path d="M253.5,72.1L253.5,72.1c1.1-0.7,2.5-0.3,3.2,0.8l18.7,32.2c0.7,1.1,0.3,2.5-0.8,3.2l0,0c-1.1,0.7-2.5,0.3-3.2-0.8
		l-18.7-32.2C252,74.2,252.4,72.8,253.5,72.1z"/>
</g>
<g>
	<path d="M238.7,81L238.7,81c1.1-0.7,2.5-0.4,3.2,0.7l19.8,31.5c0.7,1.1,0.4,2.5-0.7,3.2l0,0c-1.1,0.7-2.5,0.4-3.2-0.7L238,84.2
		C237.3,83.1,237.6,81.7,238.7,81z"/>
</g>
<g>
	<path d="M224.2,90.4L224.2,90.4c1.1-0.7,2.5-0.4,3.2,0.6l20.9,30.8c0.7,1.1,0.4,2.5-0.6,3.2l0,0c-1.1,0.7-2.5,0.4-3.2-0.6
		l-20.9-30.8C222.9,92.5,223.2,91.1,224.2,90.4z"/>
</g>
<g>
	<path d="M210.1,100.2L210.1,100.2c1-0.8,2.5-0.5,3.3,0.5l21.9,30.1c0.8,1,0.5,2.5-0.5,3.3l0,0c-1,0.8-2.5,0.5-3.3-0.5
		C231.4,131.8,205,101.5,210.1,100.2z"/>
</g>
<g>
	<path d="M196.4,110.6L196.4,110.6c1-0.8,2.5-0.6,3.3,0.4l23,29.3c0.8,1,0.6,2.5-0.4,3.3l0,0c-1,0.8-2.5,0.6-3.3-0.4l-23-29.3
		C195.2,112.9,195.3,111.4,196.4,110.6z"/>
</g>
<g>
	<path d="M182.9,121.4L182.9,121.4c2.3-4.7,25.7,28.4,27.3,28.7c0.8,1,0.7,2.4-0.3,3.3l0,0c-2.3,4.7-25.7-28.4-27.3-28.7
		C181.8,123.7,182,122.3,182.9,121.4z"/>
</g>
<g>
	<path d="M169.9,132.7L169.9,132.7c2-5,26.8,27.6,28.3,27.8c0.9,0.9,0.8,2.4-0.2,3.3l0,0c-2,5-26.8-27.6-28.3-27.8
		C168.9,135.1,169,133.6,169.9,132.7z"/>
</g>
<g>
	<path d="M157.3,144.5L157.3,144.5c0.9-0.9,2.4-0.9,3.3,0c0.3,1.7,30.7,28.1,25.9,30l0,0c-0.9,0.9-2.4,0.9-3.3,0
		C182.9,172.8,152.5,146.4,157.3,144.5z"/>
</g>
<g>
	<path d="M145.1,156.7L145.1,156.7c0.9-0.9,2.4-1,3.3-0.1c0.3,1.7,31.7,27.1,26.9,29.1l0,0c-0.9,0.9-2.4,1-3.3,0.1
		C171.7,184.1,140.2,158.7,145.1,156.7z"/>
</g>
<g>
	<path d="M133.3,169.2L133.3,169.2c1.6-5.1,29.4,24.5,31,24.6c1,0.9,1,2.3,0.2,3.3l0,0c-1.6,5.1-29.4-24.5-31-24.6
		C132.6,171.7,132.5,170.2,133.3,169.2z"/>
</g>
<g>
	<path d="M122,182.2L122,182.2c1.3-5.2,30.4,23.6,31.9,23.6c1,0.8,1.1,2.3,0.3,3.3l0,0c-1.3,5.2-30.4-23.6-31.9-23.6
		C121.3,184.7,121.2,183.2,122,182.2z"/>
</g>
<g>
	<path d="M111.2,195.6L111.2,195.6c1.2-5.2,31.1,22.4,32.7,22.4c1,0.8,1.2,2.2,0.4,3.3l0,0c-1.2,5.2-31.1-22.4-32.7-22.4
		C110.6,198.1,110.4,196.6,111.2,195.6z"/>
</g>
<g>
	<path d="M100.8,209.4L100.8,209.4c0.8-1,2.2-1.3,3.2-0.5l30.2,21.8c1,0.8,1.3,2.2,0.5,3.2l0,0c-0.8,1-2.2,1.3-3.2,0.5l-30.2-21.8
		C100.3,211.9,100,210.4,100.8,209.4z"/>
</g>
<g>
	<path d="M90.9,223.5L90.9,223.5c0.7-5.2,32.6,20.3,34.1,20.1c1.1,0.7,1.3,2.2,0.6,3.2l0,0c-0.7,5.2-32.6-20.3-34.1-20.1
		C90.4,226,90.2,224.6,90.9,223.5z"/>
</g>
<g>
	<path d="M81.5,237.9L81.5,237.9c0.5-5.3,33.3,19.1,34.8,18.9c1.1,0.7,1.4,2.1,0.7,3.2l0,0c-0.5,5.3-33.3-19.1-34.8-18.9
		C81.1,240.5,80.8,239,81.5,237.9z"/>
</g>
<g>
	<g>
		<path d="M500.5,505.4c-3,0-5.5-2.3-5.5-5.3l0,0c0-3,2.3-5.5,5.3-5.5s5.5,2.3,5.5,5.3l0,0C505.9,502.9,503.5,505.4,500.5,505.4z"/>
	</g>
	<g>
		<path d="M500.5,505.4c-3,0-5.5-2.3-5.5-5.3l0,0c0-3,2.3-5.5,5.3-5.5s5.5,2.3,5.5,5.3l0,0C505.9,502.9,503.5,505.4,500.5,505.4z"/>
	</g>
</g>
<g class="st0">
	<path d="M851.6,675.2l3.5,2l-3.7,6.5l-19.6-11.3l2.2-3.9l16.1,9.3L851.6,675.2z"/>
	<path d="M833.1,679.8c0.4,2.5,0.9,4.6,1.2,6.2c0.4,1.6,0.9,3,1.5,4.3c0.6,1.3,1.5,2.2,2.5,2.8c0.9,0.5,1.8,0.7,2.5,0.6
		c0.8-0.1,1.4-0.6,1.9-1.5c0.5-0.9,0.6-1.8,0.3-2.6c-0.3-0.8-1-1.6-2-2.2l2.1-3.7c2.1,1.3,3.4,2.9,3.8,4.7c0.4,1.8,0.1,3.7-1,5.6
		c-1.2,2-2.6,3.3-4.3,3.8c-1.7,0.5-3.5,0.2-5.2-0.8c-1.4-0.8-2.5-1.9-3.4-3.4c-0.8-1.5-1.5-3-1.8-4.5s-0.8-3.4-1.2-5.7l-4.6,7.9
		l-3.1-1.8l7.6-13.3l2.8,1.6L833.1,679.8z"/>
	<path d="M837.1,703.2c1.1,2.1,0.9,4.5-0.6,7.1c-1.5,2.6-3.4,4-5.8,4.1c-2.4,0.1-5.2-0.7-8.3-2.5c-3.1-1.8-5.2-3.8-6.4-5.9
		c-1.1-2.1-0.9-4.5,0.5-7.1s3.4-3.9,5.9-4c2.4-0.1,5.2,0.7,8.3,2.5C833.9,699.1,836,701.1,837.1,703.2z M828.1,709.8
		c1,0.3,1.9,0.4,2.8,0.3c0.9-0.2,1.6-0.8,2.2-1.8c0.6-1,0.7-1.9,0.4-2.8c-0.3-0.8-0.8-1.6-1.6-2.3c-0.8-0.7-1.9-1.4-3.2-2.2
		c-1.4-0.8-2.6-1.4-3.6-1.7c-1-0.4-2-0.5-2.8-0.3c-0.9,0.2-1.6,0.8-2.2,1.8c-0.6,1-0.7,1.9-0.5,2.8c0.3,0.8,0.8,1.6,1.6,2.3
		c0.8,0.7,1.9,1.4,3.3,2.2C825.9,708.9,827,709.5,828.1,709.8z"/>
</g>
<g class="st0">
	<path d="M877.9,486.6c-0.5,0.6-0.7,1.4-0.7,2.4c0,1.3,0.5,2.2,1.6,2.8c1.1,0.6,2.9,0.9,5.4,0.9c-0.7-0.5-1.2-1.1-1.6-2
		c-0.4-0.9-0.6-1.8-0.6-2.8c0-1.3,0.3-2.5,0.8-3.6c0.5-1.1,1.4-1.9,2.4-2.5c1.1-0.6,2.4-0.9,4-0.9c2.3,0,4.1,0.7,5.5,2s2,3.2,2,5.6
		c0,2.9-0.9,5-2.8,6.2c-1.9,1.2-4.7,1.8-8.5,1.8c-2.7,0-4.9-0.2-6.6-0.7s-3-1.3-3.9-2.4c-0.9-1.1-1.3-2.7-1.3-4.6
		c0-1.5,0.3-2.8,0.9-3.9c0.6-1.1,1.4-1.9,2.3-2.5c1-0.6,2-0.9,3.2-1l0,4C879.1,485.6,878.4,486,877.9,486.6z M886.6,491.2
		c0.7,0.6,1.6,0.9,2.7,0.9c1.2,0,2.2-0.3,2.8-1c0.7-0.7,1-1.5,1-2.7c0-1.1-0.3-2-1-2.6c-0.7-0.6-1.6-1-2.7-1c-1.1,0-2,0.3-2.7,1
		c-0.7,0.6-1,1.6-1,2.8C885.6,489.8,885.9,490.6,886.6,491.2z"/>
	<path d="M893.7,501.7c2,1.3,3,3.4,3.1,6.4c0,3-1,5.1-3,6.4c-2,1.3-4.8,1.9-8.4,2c-3.6,0-6.4-0.6-8.5-1.9c-2-1.3-3.1-3.4-3.1-6.4
		c0-3,1-5.1,3.1-6.4c2-1.3,4.9-1.9,8.5-2C888.8,499.8,891.6,500.4,893.7,501.7z M889.1,512c1-0.2,1.9-0.6,2.6-1.2
		c0.7-0.6,1-1.5,1-2.6c0-1.2-0.3-2-1-2.6c-0.7-0.6-1.5-1-2.6-1.2c-1-0.2-2.3-0.3-3.9-0.3c-1.6,0-2.9,0.1-4,0.3
		c-1.1,0.2-1.9,0.6-2.6,1.2c-0.6,0.6-1,1.5-1,2.6c0,1.2,0.3,2,1,2.6c0.7,0.6,1.5,1,2.6,1.2c1.1,0.2,2.4,0.3,4,0.3
		C886.8,512.3,888.1,512.2,889.1,512z"/>
</g>
<g class="st0">
	<path d="M835.5,294.8c0.1-0.7-0.1-1.4-0.5-2.2c-0.7-1.2-1.7-1.9-3.1-1.9c-1.3,0-3.1,0.6-5.4,1.9c1,0,1.9,0.3,2.8,0.9
		c0.9,0.6,1.6,1.4,2.2,2.3c0.7,1.2,1,2.3,1,3.5c0,1.2-0.3,2.3-1,3.4s-1.7,2-3,2.8c-1.3,0.7-2.5,1.1-3.8,1.2
		c-1.3,0.1-2.5-0.2-3.6-0.9c-1.1-0.7-2.1-1.7-2.9-3c-1.1-1.9-1.5-3.6-1.3-5.1c0.2-1.5,0.9-3,2.2-4.2c1.2-1.3,2.9-2.5,5.1-3.8
		c3.3-1.9,6.1-2.8,8.4-2.6c2.3,0.2,4.2,1.5,5.6,3.9c1.1,1.9,1.4,3.6,1,5.3c-0.4,1.6-1.3,3-2.8,4l-2-3.5
		C835,296.1,835.3,295.5,835.5,294.8z M825.6,294.9c-0.9-0.3-1.9-0.2-3,0.4c-1.1,0.6-1.7,1.4-2,2.3c-0.3,1-0.1,2,0.6,3.1
		c0.6,1,1.3,1.6,2.2,1.8c0.9,0.2,1.9,0,2.9-0.5c1-0.6,1.7-1.4,2-2.2c0.3-0.9,0.1-1.9-0.5-2.9C827.3,295.9,826.6,295.3,825.6,294.9z"
		/>
	<path d="M842,303.9c2.4,0.1,4.4,1.4,5.9,4c1.5,2.6,1.7,5,0.6,7.1c-1.1,2.1-3.2,4.1-6.3,5.9c-3.1,1.8-5.9,2.7-8.3,2.6
		c-2.4-0.1-4.4-1.4-5.9-4c-1.5-2.6-1.7-5-0.6-7.1c1.1-2.1,3.2-4.1,6.3-5.9C836.8,304.7,839.6,303.8,842,303.9z M843.2,315.1
		c0.8-0.7,1.3-1.5,1.6-2.3c0.3-0.8,0.1-1.8-0.5-2.8c-0.6-1-1.3-1.6-2.2-1.8s-1.8-0.1-2.8,0.3c-1,0.4-2.2,0.9-3.5,1.7
		c-1.4,0.8-2.5,1.5-3.3,2.2c-0.8,0.7-1.4,1.5-1.6,2.3c-0.3,0.8-0.1,1.8,0.5,2.8c0.6,1,1.3,1.6,2.2,1.8c0.9,0.2,1.8,0.1,2.8-0.3
		c1-0.4,2.2-1,3.6-1.7C841.3,316.5,842.4,315.8,843.2,315.1z"/>
</g>
<g class="st0">
	<path d="M682.6,147.6c1.7-0.3,3.6,0.1,5.5,1.2c1.3,0.8,2.3,1.6,3,2.6c0.7,1,1,2,1,3.1c0,1.1-0.2,2.1-0.8,3.1
		c-0.6,1.1-1.5,1.9-2.5,2.4c-1,0.4-2,0.6-3,0.4l-0.1,0.1c0.9,0.9,1.3,2,1.4,3.1c0.1,1.2-0.2,2.4-0.9,3.7c-0.6,1.1-1.4,1.9-2.4,2.5
		s-2.1,0.8-3.3,0.7c-1.2-0.1-2.5-0.5-3.9-1.3c-2-1.2-3.4-2.6-4.1-4.4c-0.7-1.8-0.5-3.6,0.6-5.7l3.7,2.1c-0.5,0.9-0.6,1.8-0.3,2.6
		c0.3,0.9,0.9,1.6,1.9,2.1c0.9,0.5,1.8,0.7,2.6,0.4c0.8-0.2,1.4-0.7,1.9-1.6c0.6-1.1,0.7-2,0.3-2.9s-1.3-1.7-2.8-2.5l-0.8-0.4
		l1.8-3.1l0.8,0.4c2.5,1.5,4.3,1.3,5.3-0.4c0.4-0.8,0.6-1.5,0.3-2.2c-0.2-0.7-0.7-1.3-1.6-1.8c-0.8-0.5-1.6-0.6-2.3-0.4
		c-0.7,0.2-1.3,0.6-1.8,1.3l-3.7-2.1C679.4,148.9,680.9,147.9,682.6,147.6z"/>
	<path d="M697.7,158c2.1-1.1,4.5-0.9,7.1,0.6c2.6,1.5,4,3.4,4.1,5.8c0.1,2.4-0.7,5.2-2.5,8.3c-1.8,3.1-3.8,5.2-5.9,6.4
		c-2.1,1.1-4.5,0.9-7.1-0.5c-2.6-1.5-3.9-3.4-4-5.9c-0.1-2.4,0.7-5.2,2.5-8.3C693.6,161.2,695.6,159.1,697.7,158z M704.3,167
		c0.3-1,0.4-1.9,0.3-2.8s-0.8-1.6-1.8-2.2c-1-0.6-1.9-0.7-2.8-0.4c-0.8,0.3-1.6,0.8-2.3,1.6c-0.7,0.8-1.4,1.9-2.2,3.2
		c-0.8,1.4-1.4,2.6-1.7,3.6s-0.5,2-0.3,2.8c0.2,0.9,0.8,1.6,1.8,2.2c1,0.6,1.9,0.7,2.8,0.5c0.8-0.3,1.6-0.8,2.3-1.6
		c0.7-0.8,1.4-1.9,2.2-3.3C703.4,169.2,704,168,704.3,167z"/>
</g>
<g class="st0">
	<path d="M491.1,104.1c1.3-2,3.4-3,6.4-3.1c3,0,5.1,1,6.4,3c1.3,2,1.9,4.8,2,8.4c0,3.6-0.6,6.4-1.9,8.5c-1.3,2-3.4,3.1-6.4,3.1
		c-3,0-5.1-1-6.4-3.1c-1.3-2-1.9-4.9-2-8.5C489.2,108.9,489.8,106.1,491.1,104.1z M501.4,108.6c-0.2-1-0.6-1.9-1.2-2.6
		c-0.6-0.7-1.5-1-2.6-1c-1.2,0-2,0.3-2.6,1c-0.6,0.7-1,1.5-1.2,2.6c-0.2,1-0.3,2.3-0.3,3.9c0,1.6,0.1,2.9,0.3,4
		c0.2,1.1,0.6,1.9,1.2,2.6c0.6,0.6,1.5,1,2.6,1c1.2,0,2-0.3,2.6-1c0.6-0.7,1-1.5,1.2-2.6c0.2-1.1,0.3-2.4,0.3-4
		C501.7,111,501.6,109.7,501.4,108.6z"/>
</g>
<g class="st0">
	<path d="M277.8,168.6c0.6-1.7,1.9-3,3.8-4.1c1.3-0.8,2.6-1.2,3.7-1.3c1.2-0.1,2.3,0.1,3.2,0.6c0.9,0.5,1.7,1.2,2.2,2.2
		c0.7,1.1,0.9,2.2,0.8,3.4c-0.1,1.1-0.5,2-1.2,2.8l0.1,0.1c1.2-0.3,2.4-0.2,3.4,0.3c1.1,0.5,2,1.4,2.7,2.7c0.6,1.1,0.9,2.2,0.9,3.3
		c0,1.1-0.3,2.2-1,3.2c-0.7,1-1.7,1.9-3,2.7c-2,1.2-4,1.6-5.8,1.3c-1.9-0.3-3.4-1.4-4.6-3.3l3.6-2.1c0.5,0.9,1.3,1.4,2.1,1.6
		c0.9,0.2,1.8,0,2.8-0.6c0.9-0.5,1.5-1.2,1.7-2c0.2-0.8,0.1-1.6-0.4-2.4c-0.6-1.1-1.4-1.6-2.4-1.7c-0.9-0.1-2.1,0.3-3.6,1.1
		l-0.8,0.5l-1.8-3.1l0.8-0.5c2.5-1.5,3.3-3.1,2.3-4.8c-0.4-0.8-1-1.2-1.7-1.4c-0.7-0.2-1.5,0-2.3,0.5c-0.8,0.5-1.4,1.1-1.5,1.8
		c-0.2,0.7-0.1,1.5,0.2,2.2l-3.7,2.1C277.4,172,277.2,170.2,277.8,168.6z"/>
	<path d="M293.9,159.2c0.6-1.7,1.9-3,3.8-4.1c1.3-0.8,2.6-1.2,3.7-1.3c1.2-0.1,2.3,0.1,3.2,0.6s1.7,1.2,2.2,2.2
		c0.7,1.1,0.9,2.2,0.8,3.4s-0.5,2-1.2,2.8l0.1,0.1c1.2-0.3,2.4-0.2,3.4,0.3c1.1,0.5,2,1.4,2.7,2.7c0.6,1.1,0.9,2.2,0.9,3.3
		c0,1.1-0.3,2.2-1,3.2c-0.7,1-1.7,1.9-3,2.7c-2,1.2-4,1.6-5.8,1.3c-1.9-0.3-3.4-1.4-4.6-3.3l3.6-2.1c0.5,0.9,1.2,1.4,2.1,1.6
		c0.9,0.2,1.8,0,2.8-0.6c0.9-0.5,1.5-1.2,1.7-2c0.2-0.8,0.1-1.6-0.4-2.4c-0.6-1.1-1.4-1.6-2.4-1.7c-1-0.1-2.1,0.3-3.6,1.1l-0.8,0.5
		l-1.8-3.1l0.8-0.5c2.5-1.5,3.3-3.1,2.3-4.8c-0.4-0.8-1-1.2-1.7-1.4c-0.7-0.2-1.5,0-2.3,0.5c-0.8,0.5-1.4,1.1-1.5,1.8
		c-0.2,0.7-0.1,1.5,0.2,2.2l-3.7,2.1C293.5,162.6,293.3,160.9,293.9,159.2z"/>
	<path d="M310.4,151.3c0.1-2.4,1.4-4.4,4-5.9c2.6-1.5,5-1.7,7.1-0.6c2.1,1.1,4.1,3.2,5.9,6.3c1.8,3.1,2.7,5.9,2.6,8.3
		c-0.1,2.4-1.4,4.4-4,5.9s-5,1.7-7.1,0.6c-2.1-1.1-4.1-3.2-5.9-6.3C311.2,156.5,310.3,153.7,310.4,151.3z M321.5,150.1
		c-0.7-0.8-1.5-1.3-2.3-1.6c-0.8-0.3-1.8-0.1-2.8,0.5c-1,0.6-1.6,1.3-1.8,2.2c-0.2,0.9-0.1,1.8,0.3,2.8c0.4,1,0.9,2.2,1.7,3.5
		c0.8,1.4,1.5,2.5,2.2,3.3c0.7,0.8,1.5,1.4,2.3,1.6c0.8,0.3,1.8,0.1,2.8-0.5c1-0.6,1.6-1.3,1.8-2.2c0.2-0.9,0.1-1.8-0.3-2.8
		c-0.4-1-1-2.2-1.7-3.6C323,152,322.2,150.9,321.5,150.1z"/>
</g>
<g class="st0">
	<path d="M141.6,323.7c-0.3-1.7,0.1-3.6,1.2-5.5c0.8-1.3,1.6-2.3,2.6-3c1-0.7,2-1,3.1-1c1.1,0,2.1,0.2,3.1,0.8
		c1.1,0.6,1.9,1.5,2.4,2.5c0.4,1,0.6,2,0.4,3l0.1,0.1c0.9-0.9,2-1.3,3.1-1.4c1.2-0.1,2.4,0.2,3.7,0.9c1.1,0.6,1.9,1.4,2.5,2.4
		c0.6,1,0.8,2.1,0.7,3.3c-0.1,1.2-0.5,2.5-1.3,3.9c-1.2,2-2.6,3.4-4.4,4.1c-1.8,0.7-3.6,0.5-5.7-0.6l2.1-3.7
		c0.9,0.5,1.8,0.6,2.6,0.3c0.9-0.3,1.6-0.9,2.1-1.9c0.5-0.9,0.7-1.8,0.4-2.6c-0.2-0.8-0.7-1.4-1.6-1.9c-1.1-0.6-2-0.7-2.9-0.3
		s-1.7,1.3-2.5,2.8l-0.4,0.8l-3.1-1.8l0.4-0.8c1.5-2.5,1.3-4.3-0.4-5.3c-0.8-0.4-1.5-0.6-2.2-0.3c-0.7,0.2-1.3,0.7-1.8,1.6
		c-0.5,0.8-0.6,1.6-0.4,2.3c0.2,0.7,0.6,1.3,1.3,1.8l-2.1,3.7C142.9,326.9,141.9,325.5,141.6,323.7z"/>
	<path d="M152,308.6c-1.1-2.1-0.9-4.5,0.6-7.1c1.5-2.6,3.4-4,5.8-4.1c2.4-0.1,5.2,0.7,8.3,2.5c3.1,1.8,5.2,3.8,6.4,5.9
		c1.1,2.1,0.9,4.5-0.5,7.1c-1.5,2.6-3.4,3.9-5.9,4c-2.4,0.1-5.2-0.7-8.3-2.5C155.2,312.7,153.1,310.8,152,308.6z M161,302
		c-1-0.3-1.9-0.4-2.8-0.3c-0.9,0.2-1.6,0.8-2.2,1.8c-0.6,1-0.7,1.9-0.4,2.8c0.3,0.8,0.8,1.6,1.6,2.3c0.8,0.7,1.9,1.4,3.2,2.2
		c1.4,0.8,2.6,1.4,3.6,1.7s2,0.5,2.8,0.3c0.9-0.2,1.6-0.8,2.2-1.8c0.6-1,0.7-1.9,0.5-2.8c-0.3-0.8-0.8-1.6-1.6-2.3
		c-0.8-0.7-1.9-1.4-3.3-2.2C163.2,302.9,162,302.4,161,302z"/>
	<path d="M161.9,291.3c-1.1-2.1-0.9-4.5,0.6-7.1c1.5-2.6,3.4-4,5.8-4.1c2.4-0.1,5.2,0.7,8.3,2.5c3.1,1.8,5.2,3.8,6.4,5.9
		c1.1,2.1,0.9,4.5-0.5,7.1c-1.5,2.6-3.4,3.9-5.9,4c-2.4,0.1-5.2-0.7-8.3-2.5C165.2,295.3,163.1,293.4,161.9,291.3z M171,284.7
		c-1-0.3-1.9-0.4-2.8-0.3c-0.9,0.2-1.6,0.8-2.2,1.8c-0.6,1-0.7,1.9-0.4,2.8c0.3,0.8,0.8,1.6,1.6,2.3c0.8,0.7,1.9,1.4,3.2,2.2
		c1.4,0.8,2.6,1.4,3.6,1.7c1,0.4,2,0.5,2.8,0.3c0.9-0.2,1.6-0.8,2.2-1.8c0.6-1,0.7-1.9,0.5-2.8c-0.3-0.8-0.8-1.6-1.6-2.3
		c-0.8-0.7-1.9-1.4-3.3-2.2C173.1,285.6,172,285,171,284.7z"/>
</g>
<g class="st0">
	<path d="M118.2,524.6c-1.7-2-3-3.6-4.1-4.7s-2.3-2.2-3.5-2.9c-1.2-0.8-2.4-1.2-3.5-1.2c-1.1,0-1.9,0.3-2.5,0.7
		c-0.6,0.5-0.9,1.3-0.9,2.3c0,1,0.4,1.8,1,2.4c0.7,0.6,1.6,0.8,2.8,0.9l0,4.2c-2.5-0.1-4.4-0.8-5.6-2.2c-1.3-1.4-1.9-3.2-1.9-5.3
		c0-2.4,0.6-4.2,1.9-5.4s2.9-1.9,4.9-1.9c1.6,0,3.2,0.4,4.6,1.3c1.5,0.9,2.7,1.9,3.8,3s2.4,2.6,3.9,4.4l0-9.1l3.6,0l0,15.3l-3.2,0
		L118.2,524.6z"/>
	<path d="M103.7,493.8L123,502l0,4.4l-18.8-8.3l0,10.6l-3.7,0l0-14.9L103.7,493.8z"/>
	<path d="M103,489.2c-2-1.3-3-3.4-3.1-6.4c0-3,1-5.1,3-6.4c2-1.3,4.8-1.9,8.4-2c3.6,0,6.4,0.6,8.5,1.9c2,1.3,3.1,3.4,3.1,6.4
		c0,3-1,5.1-3.1,6.4c-2,1.3-4.9,1.9-8.5,2C107.8,491.2,105,490.5,103,489.2z M107.5,479c-1,0.2-1.9,0.6-2.6,1.2
		c-0.7,0.6-1,1.5-1,2.6c0,1.2,0.3,2,1,2.6c0.7,0.6,1.5,1,2.6,1.2c1,0.2,2.3,0.3,3.9,0.3c1.6,0,2.9-0.1,4-0.3
		c1.1-0.2,1.9-0.6,2.6-1.2c0.6-0.6,1-1.5,1-2.6c0-1.2-0.3-2-1-2.6c-0.7-0.6-1.5-1-2.6-1.2c-1.1-0.2-2.4-0.3-4-0.3
		C109.8,478.7,108.5,478.8,107.5,479z"/>
</g>
<g class="st0">
	<path d="M182.6,712.8c-2.4-0.9-4.4-1.6-6-2c-1.5-0.5-3-0.7-4.5-0.8c-1.4-0.1-2.6,0.2-3.6,0.8c-0.9,0.5-1.5,1.2-1.8,1.9
		c-0.3,0.7-0.1,1.5,0.4,2.4c0.5,0.9,1.2,1.4,2.1,1.5c0.9,0.1,1.8-0.1,2.9-0.7l2.1,3.6c-2.2,1.2-4.2,1.5-6,0.9
		c-1.8-0.6-3.3-1.8-4.3-3.6c-1.2-2-1.5-3.9-1.1-5.6c0.4-1.7,1.6-3.1,3.3-4.1c1.4-0.8,2.9-1.2,4.6-1.2s3.3,0.2,4.8,0.7
		c1.5,0.4,3.4,1,5.6,1.8l-4.6-7.9l3.1-1.8l7.7,13.2l-2.8,1.6L182.6,712.8z"/>
	<path d="M174.9,698.5l-2.9,1.7l-17.6-1.5l-2.5-4.4l12.2-7.1l-1.4-2.4l3.3-1.9l1.4,2.4l3.8-2.2l2.2,3.8l-3.8,2.2L174.9,698.5z
		 M157.8,695.5l11.4,0.7l-3.2-5.5L157.8,695.5z"/>
	<path d="M150,686.7c-2.4-0.1-4.4-1.4-5.9-4s-1.7-5-0.6-7.1c1.1-2.1,3.2-4.1,6.3-5.9c3.1-1.8,5.9-2.7,8.3-2.6c2.4,0.1,4.4,1.4,5.9,4
		c1.5,2.6,1.7,5,0.6,7.1c-1.1,2.1-3.2,4.1-6.3,5.9C155.2,686,152.4,686.8,150,686.7z M148.8,675.6c-0.8,0.7-1.3,1.5-1.6,2.3
		c-0.3,0.8-0.1,1.8,0.5,2.8c0.6,1,1.3,1.6,2.2,1.8c0.9,0.2,1.8,0.1,2.8-0.3c1-0.4,2.2-0.9,3.5-1.7c1.4-0.8,2.5-1.5,3.3-2.2
		c0.8-0.7,1.4-1.5,1.6-2.3c0.3-0.8,0.1-1.8-0.5-2.8s-1.3-1.6-2.2-1.8c-0.9-0.2-1.8-0.1-2.8,0.3c-1,0.4-2.2,1-3.6,1.7
		C150.7,674.2,149.6,674.9,148.8,675.6z"/>
</g>
<g class="st0">
	<path d="M327.6,839.7c-2.5,0.4-4.6,0.9-6.2,1.2c-1.6,0.4-3,0.9-4.3,1.5s-2.2,1.5-2.8,2.5c-0.5,0.9-0.7,1.8-0.6,2.5
		c0.1,0.8,0.6,1.4,1.5,1.9c0.9,0.5,1.8,0.6,2.6,0.3c0.8-0.3,1.6-1,2.2-2l3.7,2.1c-1.3,2.1-2.9,3.4-4.7,3.8c-1.8,0.4-3.7,0.1-5.6-1
		c-2-1.2-3.3-2.6-3.8-4.3c-0.5-1.7-0.2-3.5,0.8-5.2c0.8-1.4,1.9-2.5,3.4-3.4c1.5-0.8,3-1.5,4.5-1.8c1.5-0.4,3.4-0.8,5.7-1.2
		l-7.9-4.6l1.8-3.1l13.3,7.6l-1.6,2.8L327.6,839.7z"/>
	<path d="M307,843.7l-2,3.5l-6.5-3.7l11.3-19.6l3.9,2.2l-9.3,16.1L307,843.7z"/>
	<path d="M294.4,838.1c-2.1,1.1-4.5,0.9-7.1-0.6s-4-3.4-4.1-5.8c-0.1-2.4,0.7-5.2,2.5-8.3c1.8-3.1,3.8-5.2,5.9-6.4
		c2.1-1.1,4.5-0.9,7.1,0.5s3.9,3.4,4,5.9c0.1,2.4-0.7,5.2-2.5,8.3C298.5,834.9,296.5,837,294.4,838.1z M287.8,829.1
		c-0.3,1-0.4,1.9-0.3,2.8c0.2,0.9,0.8,1.6,1.8,2.2c1,0.6,1.9,0.7,2.8,0.4c0.8-0.3,1.6-0.8,2.3-1.6s1.4-1.9,2.2-3.2
		c0.8-1.4,1.4-2.6,1.7-3.6c0.4-1,0.5-2,0.3-2.8c-0.2-0.9-0.8-1.6-1.8-2.2c-1-0.6-1.9-0.7-2.8-0.5c-0.8,0.3-1.6,0.8-2.3,1.6
		c-0.7,0.8-1.4,1.9-2.2,3.3C288.7,826.9,288.2,828.1,287.8,829.1z"/>
</g>
<g class="st0">
	<path d="M523.7,893.2l0,4l-7.5,0l0-22.6l4.5,0l0,18.6L523.7,893.2z"/>
	<path d="M511.3,891.6c0,1.1-0.3,2.1-0.8,3.1c-0.6,0.9-1.4,1.7-2.6,2.2c-1.1,0.6-2.5,0.8-4.2,0.8c-1.7,0-3.1-0.3-4.2-0.8
		c-1.1-0.5-2-1.3-2.6-2.2c-0.6-0.9-0.9-1.9-0.9-3.1c0-1.1,0.3-2.1,0.8-3c0.6-0.9,1.3-1.5,2.2-2c-1.1-0.5-2-1.2-2.7-2.2
		c-0.6-1-1-2.1-1-3.4c0-1.4,0.4-2.6,1.1-3.7c0.7-1,1.7-1.8,2.9-2.4c1.2-0.6,2.6-0.8,4.2-0.8c1.5,0,2.9,0.3,4.2,0.8
		c1.2,0.6,2.2,1.4,2.9,2.4c0.7,1,1.1,2.3,1.1,3.7c0,1.3-0.3,2.4-1,3.4c-0.6,1-1.5,1.7-2.7,2.2C510.2,887.7,511.3,889.4,511.3,891.6z
		 M506.5,883.8c0.7-0.6,1.1-1.5,1.1-2.6c0-1-0.4-1.9-1.1-2.5c-0.7-0.6-1.7-1-2.9-1c-1.2,0-2.2,0.3-2.9,1c-0.7,0.7-1.1,1.5-1,2.5
		c0,1.1,0.4,1.9,1.1,2.6c0.7,0.6,1.7,0.9,2.9,0.9C504.8,884.7,505.8,884.4,506.5,883.8z M501.1,893.4c0.6,0.6,1.4,0.8,2.5,0.8
		c1,0,1.9-0.3,2.5-0.8c0.6-0.6,0.9-1.4,0.9-2.4c0-0.9-0.3-1.7-1-2.2c-0.6-0.6-1.4-0.8-2.4-0.8c-1,0-1.8,0.3-2.4,0.9
		c-0.6,0.6-1,1.3-1,2.2C500.2,892,500.5,892.8,501.1,893.4z"/>
	<path d="M490.1,894.7c-1.3,2-3.4,3-6.4,3.1c-3,0-5.1-1-6.4-3c-1.3-2-1.9-4.8-2-8.4c0-3.6,0.6-6.4,1.9-8.5c1.3-2,3.4-3.1,6.4-3.1
		c3,0,5.1,1,6.4,3.1c1.3,2,1.9,4.9,2,8.5C492,889.9,491.4,892.7,490.1,894.7z M479.8,890.2c0.2,1,0.6,1.9,1.2,2.6
		c0.6,0.7,1.5,1,2.6,1c1.2,0,2-0.3,2.6-1c0.6-0.7,1-1.5,1.2-2.6c0.2-1,0.3-2.3,0.3-3.9c0-1.6-0.1-2.9-0.3-4
		c-0.2-1.1-0.6-1.9-1.2-2.6c-0.6-0.6-1.5-1-2.6-1c-1.2,0-2,0.3-2.6,1c-0.6,0.7-1,1.5-1.2,2.6c-0.2,1.1-0.3,2.4-0.3,4
		C479.5,887.8,479.6,889.1,479.8,890.2z"/>
</g>
<g class="st0">
	<path d="M717.2,827.7l2,3.5l-6.5,3.8l-11.3-19.6l3.9-2.2l9.3,16.1L717.2,827.7z"/>
	<path d="M694,841.5l8.7-5l-2.7-4.6c-0.1,0.7-0.4,1.4-0.9,2.1c-0.5,0.7-1.2,1.3-2,1.7c-1.4,0.8-2.8,1.2-4.1,1.1
		c-1.3-0.1-2.4-0.5-3.4-1.2c-1-0.7-1.8-1.7-2.4-2.8c-1.2-2.1-1.6-4.1-1.1-6c0.4-1.9,1.7-3.5,3.9-4.8c2-1.2,4-1.6,5.8-1.3
		c1.8,0.3,3.3,1.2,4.4,2.8l-3.6,2.1c-0.6-0.6-1.3-1-2.1-1.1s-1.7,0.1-2.5,0.6c-1.1,0.6-1.7,1.4-1.8,2.4s0.1,2,0.7,3.1
		c0.6,1.1,1.4,1.8,2.3,2.1c0.9,0.3,1.9,0.1,2.9-0.5c0.8-0.4,1.3-1,1.6-1.7c0.3-0.7,0.3-1.4,0.2-2.1l3.6-2.1l6.7,11.5l-12.1,7
		L694,841.5z"/>
	<path d="M688.8,845.8c-0.1,2.4-1.4,4.4-4,5.9c-2.6,1.5-5,1.7-7.1,0.6c-2.1-1.1-4.1-3.2-5.9-6.3c-1.8-3.1-2.7-5.9-2.6-8.3
		c0.1-2.4,1.4-4.4,4-5.9c2.6-1.5,5-1.7,7.1-0.6c2.1,1.1,4.1,3.2,5.9,6.3C688.1,840.7,688.9,843.4,688.8,845.8z M677.7,847
		c0.7,0.8,1.5,1.3,2.3,1.6c0.8,0.3,1.8,0.1,2.8-0.5s1.6-1.3,1.8-2.2c0.2-0.9,0.1-1.8-0.3-2.8c-0.4-1-0.9-2.2-1.7-3.5
		c-0.8-1.4-1.5-2.5-2.2-3.3c-0.7-0.8-1.5-1.4-2.3-1.6c-0.8-0.3-1.8-0.1-2.8,0.5c-1,0.6-1.6,1.3-1.8,2.2c-0.2,0.9-0.1,1.8,0.3,2.8
		c0.4,1,1,2.2,1.7,3.6C676.3,845.2,677,846.2,677.7,847z"/>
</g>
<g class="st0">
	<path d="M811.2,493.8l-14.9,0l0,20l-9.5,0l0-20l-15.8,0l0,22.6l-9.7,0l-0.1-34.5l59.6-0.1l0.1,34.5l-9.7,0L811.2,493.8z"/>
</g>
<g class="st0">
	<path d="M523.3,236.4l-11.9,0l-27.1-40.8l0.1,40.8l-11.9,0l-0.1-59.6l11.9,0l27.1,40.9l-0.1-40.9l11.9,0L523.3,236.4z"/>
</g>
<g class="st0">
	<path d="M175.8,458.3l59.6,16.5l0,14.1L193,500.1l42.4,11.6l0.1,14l-59.6,16.2l0-12.8l46.2-10.6l-46.2-12l0-13.3l45.9-11.5
		l-46-10.5L175.8,458.3z"/>
</g>
<g class="st0">
	<path d="M509.7,763.8c3.3,1.4,6,3.5,7.9,6.1c1.9,2.7,2.9,5.8,3,9.5l-12.8,0c-0.2-2.4-1-4.4-2.6-5.8c-1.6-1.4-3.7-2.1-6.4-2.1
		c-2.8,0-5,0.7-6.6,2c-1.6,1.3-2.4,3.1-2.4,5.2c0,1.8,0.5,3.2,1.6,4.3c1.1,1.1,2.4,2,4.1,2.7s3.9,1.4,6.7,2.2c3.9,1.1,7,2.2,9.4,3.3
		c2.4,1.1,4.5,2.8,6.2,5c1.7,2.2,2.6,5.2,2.6,9c0,3.5-0.9,6.6-2.6,9.2c-1.8,2.6-4.2,4.6-7.4,6c-3.2,1.4-6.8,2.1-10.9,2.1
		c-6.1,0-11.1-1.5-15-4.4s-6-7.1-6.4-12.5l13.1,0c0.1,2,1,3.7,2.6,5.1c1.6,1.3,3.8,2,6.4,2c2.3,0,4.2-0.6,5.6-1.8
		c1.4-1.2,2.1-2.9,2.1-5.2c0-1.6-0.5-2.9-1.6-4c-1.1-1.1-2.4-1.9-3.9-2.5c-1.6-0.7-3.8-1.4-6.6-2.2c-3.9-1.1-7-2.3-9.5-3.4
		c-2.4-1.1-4.6-2.8-6.3-5.1c-1.8-2.3-2.7-5.3-2.7-8.9c0-3.2,0.8-6.1,2.5-8.9c1.6-2.7,4.1-4.9,7.2-6.5c3.2-1.6,7-2.4,11.3-2.5
		C502.6,761.7,506.4,762.4,509.7,763.8z"/>
</g>
<g class="st0">
	<path d="M306.2,319.7l-3.7,3.8l-28.4-5.7l17.1,17l-3.7,3.8l-22.9-22.8l3.7-3.8l28.3,5.7l-17.1-17l3.7-3.8L306.2,319.7z"/>
	<path d="M317.9,262.2l16.2,29.6l-4.2,4.3l-22.1-12.4l12.3,22.4l-4.2,4.3l-29.4-16.3l4-4l23.4,13.8L300.2,280l4.2-4.2l23.3,13.7
		l-13.8-23.3L317.9,262.2z"/>
</g>
<g class="st0">
	<path d="M332.7,707.8c0.7,1.8,0.9,3.5,0.6,5.2c-0.3,1.7-1.1,3.2-2.4,4.5l-4-4c0.9-1.1,1.3-2.3,1.3-3.6c-0.1-1.3-0.7-2.6-2-3.9
		c-1.3-1.3-2.6-2-4-2.1c-1.3-0.1-2.5,0.4-3.5,1.3c-0.8,0.8-1.2,1.6-1.2,2.6c0,0.9,0.2,1.9,0.6,2.8c0.4,0.9,1.1,2.1,1.9,3.6
		c1.1,1.9,1.9,3.5,2.4,4.8c0.5,1.3,0.7,2.8,0.5,4.3c-0.2,1.5-1,3-2.4,4.4c-1.3,1.3-2.8,2.1-4.4,2.5c-1.6,0.3-3.3,0.2-5-0.5
		c-1.7-0.7-3.3-1.8-4.9-3.3c-2.2-2.2-3.5-4.6-3.8-7.1c-0.3-2.5,0.4-4.8,2.2-6.9l4.2,4.1c-0.8,0.9-1.1,2-0.9,3.3
		c0.1,1.3,0.8,2.6,2,3.7c1.1,1.1,2.2,1.7,3.5,1.8c1.2,0.1,2.4-0.3,3.4-1.4c0.7-0.7,1.1-1.5,1.1-2.4c0-0.9-0.2-1.8-0.6-2.7
		c-0.4-0.9-1-2.1-1.8-3.5c-1.1-1.9-1.9-3.6-2.5-4.9c-0.5-1.4-0.7-2.8-0.5-4.4c0.2-1.5,1-3,2.5-4.5c1.2-1.2,2.6-2,4.2-2.4
		c1.7-0.4,3.4-0.3,5.2,0.2c1.8,0.6,3.5,1.7,5.2,3.3C330.9,704.4,332,706,332.7,707.8z"/>
	<path d="M264.1,684l29.6-16.1l4.3,4.2l-12.4,22.1l22.4-12.3l4.3,4.2l-16.3,29.4l-4-4l13.8-23.4l-23.7,13.5l-4.2-4.2l13.7-23.3
		L268.1,688L264.1,684z"/>
</g>
<g class="st0">
	<path d="M700,675.2c1.8-0.7,3.5-0.9,5.2-0.6c1.7,0.3,3.2,1.1,4.5,2.4l-4,4c-1.1-0.9-2.3-1.3-3.6-1.3s-2.6,0.7-3.9,2
		c-1.3,1.3-2,2.6-2.1,4c-0.1,1.3,0.4,2.5,1.3,3.5c0.8,0.8,1.6,1.2,2.6,1.2c0.9,0,1.9-0.2,2.8-0.6c0.9-0.4,2.1-1.1,3.6-1.9
		c1.9-1.1,3.5-1.9,4.8-2.4c1.3-0.5,2.8-0.7,4.3-0.5c1.5,0.2,3,1,4.4,2.4c1.3,1.3,2.1,2.8,2.5,4.4c0.3,1.6,0.2,3.3-0.5,5
		c-0.7,1.7-1.8,3.3-3.3,4.9c-2.2,2.2-4.6,3.5-7.1,3.8c-2.5,0.3-4.8-0.4-6.9-2.2l4.1-4.2c0.9,0.8,2,1.1,3.3,0.9
		c1.3-0.1,2.6-0.8,3.7-2c1.1-1.1,1.7-2.2,1.8-3.5c0.1-1.2-0.3-2.4-1.4-3.4c-0.7-0.7-1.5-1.1-2.4-1.1c-0.9,0-1.8,0.2-2.7,0.6
		c-0.9,0.4-2.1,1-3.5,1.8c-1.9,1.1-3.6,1.9-4.9,2.5c-1.4,0.5-2.8,0.7-4.4,0.5c-1.5-0.2-3-1-4.5-2.5c-1.2-1.2-2-2.6-2.4-4.2
		c-0.4-1.7-0.3-3.4,0.2-5.2c0.6-1.8,1.7-3.5,3.3-5.2C696.6,677,698.2,675.9,700,675.2z"/>
	<path d="M699.1,714.6l-6.7-6.7l-7.9,7.9l-3.1-3.1l7.9-7.9l-7-7l-8.9,8.9l-3.1-3.1l12.6-12.7l22.9,22.8l-12.6,12.7l-3.1-3.1
		L699.1,714.6z"/>
</g>
<g class="st0">
	<path d="M688.1,314l-3.8-3.7l5.7-28.4L673,299l-3.8-3.7l22.8-22.9l3.8,3.7l-5.7,28.3l17-17.1l3.8,3.7L688.1,314z"/>
	<path d="M716.6,302.8l-6.7,6.7l7.9,7.9l-3.1,3.1l-7.9-7.9l-7,7l8.9,8.9l-3.1,3.1L693,319l22.8-22.9l12.7,12.6l-3.1,3.1L716.6,302.8
		z"/>
</g>
</svg>
