<?xml version="1.0" encoding="utf-8"?>
<!-- Generator: Adobe Illustrator 26.0.0, SVG Export Plug-In . SVG Version: 6.00 Build 0)  -->
<svg version="1.1" id="Layer_1" xmlns="http://www.w3.org/2000/svg" xmlns:xlink="http://www.w3.org/1999/xlink" x="0px" y="0px"
	 viewBox="0 0 100 100" style="enable-background:new 0 0 100 100;" xml:space="preserve">
<path d="M87.42,63L87.42,63c0,1.38-1.12,2.5-2.5,2.5h-67c-1.38,0-2.5-1.12-2.5-2.5v0c0-1.38,1.12-2.5,2.5-2.5h67
	C86.3,60.5,87.42,61.62,87.42,63z"/>
<path d="M75.17,72.28L75.17,72.28c0,1.38-1.12,2.5-2.5,2.5h-42.5c-1.38,0-2.5-1.12-2.5-2.5l0,0c0-1.38,1.12-2.5,2.5-2.5h42.5
	C74.05,69.78,75.17,70.9,75.17,72.28z"/>
<path d="M62.92,84.05h-23c-1.38,0-2.5-1.12-2.5-2.5l0,0c0-1.38,1.12-2.5,2.5-2.5h23c1.38,0,2.5,1.12,2.5,2.5l0,0
	C65.42,82.93,64.3,84.05,62.92,84.05z"/>
<path d="M71.49,56.5H32.52c0.25-10.54,8.88-19,19.48-19S71.23,45.96,71.49,56.5z"/>
<line x1="71.49" y1="56.5" x2="32.52" y2="56.5"/>
<path d="M51,33.5L51,33.5c-1.38,0-2.5-1.12-2.5-2.5V21c0-1.38,1.12-2.5,2.5-2.5h0c1.38,0,2.5,1.12,2.5,2.5v10
	C53.5,32.38,52.38,33.5,51,33.5z"/>
<path d="M64.31,36.91L64.31,36.91c-1.08-0.86-1.27-2.43-0.41-3.51l6.21-7.84c0.86-1.08,2.43-1.27,3.51-0.41v0
	c1.08,0.86,1.27,2.43,0.41,3.51l-6.21,7.84C66.96,37.59,65.39,37.77,64.31,36.91z"/>
<path d="M73.66,47.78L73.66,47.78c-0.43-1.31,0.29-2.72,1.6-3.15l9.51-3.09c1.31-0.43,2.72,0.29,3.15,1.6v0
	c0.43,1.31-0.29,2.72-1.6,3.15l-9.51,3.09C75.49,49.81,74.08,49.09,73.66,47.78z"/>
<path d="M37.32,38.13L37.32,38.13c-1.13,0.79-2.69,0.52-3.48-0.61l-5.74-8.19c-0.79-1.13-0.52-2.69,0.61-3.48l0,0
	c1.13-0.79,2.69-0.52,3.48,0.61l5.74,8.19C38.73,35.78,38.46,37.34,37.32,38.13z"/>
<path d="M28.78,49.76L28.78,49.76c-0.47,1.3-1.91,1.97-3.2,1.49l-9.4-3.42c-1.3-0.47-1.97-1.91-1.49-3.2l0,0
	c0.47-1.3,1.91-1.97,3.2-1.49l9.4,3.42C28.58,47.03,29.25,48.46,28.78,49.76z"/>
<g>
</g>
<g>
</g>
<g>
</g>
<g>
</g>
<g>
</g>
<g>
</g>
<g>
</g>
<g>
</g>
<g>
</g>
<g>
</g>
<g>
</g>
<g>
</g>
<g>
</g>
<g>
</g>
<g>
</g>
</svg>
